<svg width="1em" height="1em" viewBox="0 0 16 16" fill="currentColor" xmlns="http://www.w3.org/2000/svg">
      <path d="M2.94726562,12.28125 L3.43945312,10.6875 L6.2578125,10.6875 L6.75585938,12.28125 L8.96484375,12.28125 L5.8125,3.75 L3.87890625,3.75 L0.75,12.28125 L2.94726562,12.28125 Z M5.765625,9.09960938 L3.93164062,9.09960938 L4.84570312,6.140625 L5.765625,9.09960938 Z M11.3554688,12.3984375 C12.0078125,12.3984375 12.515625,12.1699219 12.8789062,11.7128906 C12.9335938,11.9628906 12.9960938,12.1523438 13.0664062,12.28125 L13.0664062,12.28125 L15.0410156,12.28125 L15.0410156,12.1816406 C14.8691406,11.8730469 14.7792969,11.4277344 14.7714844,10.8457031 L14.7714844,10.8457031 L14.7714844,8.0390625 C14.7597656,7.3515625 14.5195312,6.81054688 14.0507812,6.41601562 C13.5820312,6.02148438 12.9433594,5.82421875 12.1347656,5.82421875 C11.3261719,5.82421875 10.6611328,6.015625 10.1396484,6.3984375 C9.61816406,6.78125 9.35742188,7.27929688 9.35742188,7.89257812 L9.35742188,7.89257812 L11.3320312,7.89257812 C11.3320312,7.43164062 11.5664062,7.20117188 12.0351562,7.20117188 C12.5390625,7.20117188 12.7910156,7.4921875 12.7910156,8.07421875 L12.7910156,8.07421875 L12.7910156,8.40820312 L12.1816406,8.40820312 C11.2128906,8.40820312 10.4746094,8.58398438 9.96679688,8.93554688 C9.45898438,9.28710938 9.20507812,9.80664062 9.20507812,10.4941406 C9.20507812,11.0410156 9.4140625,11.4951172 9.83203125,11.8564453 C10.25,12.2177734 10.7578125,12.3984375 11.3554688,12.3984375 Z M11.8300781,10.9921875 C11.6425781,10.9921875 11.4882812,10.9365234 11.3671875,10.8251953 C11.2460938,10.7138672 11.1855469,10.5683594 11.1855469,10.3886719 C11.1855469,9.77148438 11.5292969,9.46289062 12.2167969,9.46289062 L12.2167969,9.46289062 L12.7910156,9.46289062 L12.7910156,10.4765625 C12.7207031,10.609375 12.6044922,10.7285156 12.4423828,10.8339844 C12.2802734,10.9394531 12.0761719,10.9921875 11.8300781,10.9921875 Z"></path>
    </svg>