<svg width="1em" height="1em" viewBox="0 0 16 16" fill="currentColor" xmlns="http://www.w3.org/2000/svg">
        <path d="M11.1289062,12.4042969 L11.1289062,10.8808594 L7.77148438,10.8808594 L8.87304688,9.609375 C9.45898438,9.0234375 9.88378906,8.55566406 10.1474609,8.20605469 C10.4111328,7.85644531 10.6054688,7.52246094 10.7304688,7.20410156 C10.8554688,6.88574219 10.9179688,6.55859375 10.9179688,6.22265625 C10.9179688,5.42578125 10.6689453,4.81445312 10.1708984,4.38867188 C9.67285156,3.96289062 8.96289062,3.75 8.04101562,3.75 C7.46679688,3.75 6.94726562,3.875 6.48242188,4.125 C6.01757812,4.375 5.65429688,4.72167969 5.39257812,5.16503906 C5.13085938,5.60839844 5,6.09179688 5,6.61523438 L5,6.61523438 L6.98046875,6.61523438 C6.98046875,6.23242188 7.07421875,5.91308594 7.26171875,5.65722656 C7.44921875,5.40136719 7.69335938,5.2734375 7.99414062,5.2734375 C8.29882812,5.2734375 8.53125,5.36914062 8.69140625,5.56054688 C8.8515625,5.75195312 8.93164062,6.03125 8.93164062,6.3984375 C8.93164062,6.8515625 8.59375,7.46289062 7.91796875,8.23242188 L7.91796875,8.23242188 L5.17578125,11.1152344 L5.17578125,12.4042969 L11.1289062,12.4042969 Z"></path>
      </svg>