<svg width="2em" height="2em" viewBox="0 0 16 16" fill="currentColor" xmlns="http://www.w3.org/2000/svg">
        <path d="M8.01171875,12.2714844 C8.96484375,12.2714844 9.734375,12.0429688 10.3203125,11.5859375 C10.90625,11.1289062 11.1992188,10.5195312 11.1992188,9.7578125 C11.1992188,9.265625 11.0703125,8.85253906 10.8125,8.51855469 C10.5546875,8.18457031 10.1992188,7.93554688 9.74609375,7.77148438 C10.1757812,7.56835938 10.5029297,7.30371094 10.7275391,6.97753906 C10.9521484,6.65136719 11.0644531,6.3046875 11.0644531,5.9375 C11.0644531,5.1796875 10.7929688,4.58398438 10.25,4.15039062 C9.70703125,3.71679688 8.9609375,3.5 8.01171875,3.5 C7.48046875,3.5 6.99316406,3.59863281 6.54980469,3.79589844 C6.10644531,3.99316406 5.75976562,4.26757812 5.50976562,4.61914062 C5.25976562,4.97070312 5.13476562,5.37109375 5.13476562,5.8203125 L5.13476562,5.8203125 L7.109375,5.8203125 C7.109375,5.59375 7.20605469,5.40429688 7.39941406,5.25195312 C7.59277344,5.09960938 7.8203125,5.0234375 8.08203125,5.0234375 C8.40234375,5.0234375 8.65039062,5.11230469 8.82617188,5.29003906 C9.00195312,5.46777344 9.08984375,5.69726562 9.08984375,5.97851562 C9.08984375,6.70117188 8.72070312,7.0625 7.98242188,7.0625 L7.98242188,7.0625 L7.05078125,7.0625 L7.05078125,8.53320312 L8.01171875,8.53320312 C8.390625,8.53320312 8.6875,8.62304688 8.90234375,8.80273438 C9.1171875,8.98242188 9.22460938,9.28710938 9.22460938,9.71679688 C9.22460938,10.0175781 9.12109375,10.2646484 8.9140625,10.4580078 C8.70703125,10.6513672 8.4296875,10.7480469 8.08203125,10.7480469 C7.7734375,10.7480469 7.51367188,10.6523438 7.30273438,10.4609375 C7.09179688,10.2695312 6.98632812,10.0429688 6.98632812,9.78125 L6.98632812,9.78125 L5,9.78125 C5,10.2617188 5.12304688,10.6904297 5.36914062,11.0673828 C5.61523438,11.4443359 5.97753906,11.7392578 6.45605469,11.9521484 C6.93457031,12.1650391 7.453125,12.2714844 8.01171875,12.2714844 Z"></path>
      </svg>