<svg width="2em" height="2em" viewBox="0 0 16 16" fill="currentColor" xmlns="http://www.w3.org/2000/svg">
        <path d="M8.00008492,12.3984375 C8.60164742,12.3984375 9.12313179,12.2792969 9.56453804,12.0410156 C10.0059443,11.8027344 10.3487177,11.4619141 10.5928584,11.0185547 C10.836999,10.5751953 10.9590693,10.0800781 10.9590693,9.53320312 C10.9590693,8.62695312 10.7315302,7.92285156 10.2764521,7.42089844 C9.82137398,6.91894531 9.17000679,6.66796875 8.32235054,6.66796875 C8.10360054,6.66796875 7.87996773,6.69921875 7.65145211,6.76171875 C7.42293648,6.82421875 7.23836617,6.89648438 7.09774117,6.97851562 L7.09774117,6.97851562 L7.29110054,5.28515625 L10.6719599,5.28515625 L10.6719599,3.75 L5.68563179,3.75 L5.16414742,8.109375 L6.73445992,8.47851562 C6.96102242,8.18164062 7.30477242,8.03320312 7.76570992,8.03320312 C8.57820992,8.03320312 8.98445992,8.48828125 8.98445992,9.3984375 C8.98445992,10.3828125 8.65242867,10.875 7.98836617,10.875 C7.69539742,10.875 7.45906929,10.7832031 7.27938179,10.5996094 C7.09969429,10.4160156 7.00008492,10.1679688 6.98055367,9.85546875 L6.98055367,9.85546875 L5.00008492,9.85546875 C4.99617867,10.3398438 5.12703804,10.7744141 5.39266304,11.1591797 C5.65828804,11.5439453 6.02547554,11.8466797 6.49422554,12.0673828 C6.96297554,12.2880859 7.46492867,12.3984375 8.00008492,12.3984375 Z"></path>
      </svg>