<svg width="1em" height="1em" viewBox="0 0 16 16" fill="currentColor" xmlns="http://www.w3.org/2000/svg">
        <path d="M8.14648438,12.2714844 C8.70507812,12.2714844 9.21386719,12.1435547 9.67285156,11.8876953 C10.1318359,11.6318359 10.4892578,11.2773438 10.7451172,10.8242188 C11.0009766,10.3710938 11.1289062,9.87304688 11.1289062,9.33007812 C11.1289062,8.45507812 10.9101562,7.74804688 10.4726562,7.20898438 C10.0351562,6.66992188 9.44726562,6.40039062 8.70898438,6.40039062 C8.02929688,6.40039062 7.46679688,6.61914062 7.02148438,7.05664062 C7.13085938,6.42773438 7.42285156,5.93652344 7.89746094,5.58300781 C8.37207031,5.22949219 8.97851562,5.05273438 9.71679688,5.05273438 L9.71679688,5.05273438 L9.8046875,5.05273438 L9.8046875,3.5 L9.50585938,3.5 C8.65429688,3.5 7.87890625,3.69921875 7.1796875,4.09765625 C6.48046875,4.49609375 5.94238281,5.04589844 5.56542969,5.74707031 C5.18847656,6.44824219 5,7.23828125 5,8.1171875 L5,8.1171875 L5,8.90820312 C5.0078125,9.57617188 5.14453125,10.1660156 5.41015625,10.6777344 C5.67578125,11.1894531 6.046875,11.5830078 6.5234375,11.8583984 C7,12.1337891 7.54101562,12.2714844 8.14648438,12.2714844 Z M8.09375,10.7480469 C7.34765625,10.7480469 6.97460938,10.2089844 6.97460938,9.13085938 L6.97460938,9.13085938 L6.97460938,8.5390625 C7.06054688,8.36328125 7.19140625,8.21484375 7.3671875,8.09375 C7.54296875,7.97265625 7.76171875,7.91210938 8.0234375,7.91210938 C8.36328125,7.91210938 8.63574219,8.04394531 8.84082031,8.30761719 C9.04589844,8.57128906 9.1484375,8.91210938 9.1484375,9.33007812 C9.1484375,9.73632812 9.04785156,10.0742188 8.84667969,10.34375 C8.64550781,10.6132812 8.39453125,10.7480469 8.09375,10.7480469 Z"></path>
      </svg>