<svg width="2em" height="2em" viewBox="0 0 16 16" fill="currentColor" xmlns="http://www.w3.org/2000/svg">
        <path d="M7.99414062,12.2714844 C8.91601562,12.2714844 9.63964844,12.0507812 10.1650391,11.609375 C10.6904297,11.1679688 10.953125,10.5664062 10.953125,9.8046875 C10.953125,9.33203125 10.8339844,8.92285156 10.5957031,8.57714844 C10.3574219,8.23144531 10.0351562,7.95898438 9.62890625,7.75976562 C9.98828125,7.56835938 10.2705078,7.31445312 10.4755859,6.99804688 C10.6806641,6.68164062 10.7832031,6.31640625 10.7832031,5.90234375 C10.7832031,5.16015625 10.53125,4.57421875 10.0273438,4.14453125 C9.5234375,3.71484375 8.83984375,3.5 7.9765625,3.5 C7.12109375,3.5 6.44140625,3.71484375 5.9375,4.14453125 C5.43359375,4.57421875 5.18164062,5.16015625 5.18164062,5.90234375 C5.18164062,6.31640625 5.28515625,6.68164062 5.4921875,6.99804688 C5.69921875,7.31445312 5.984375,7.56835938 6.34765625,7.75976562 C5.91796875,7.96289063 5.5859375,8.24023438 5.3515625,8.59179688 C5.1171875,8.94335938 5,9.34765625 5,9.8046875 C5,10.5625 5.26757812,11.1630859 5.80273438,11.6064453 C6.33789062,12.0498047 7.06835938,12.2714844 7.99414062,12.2714844 Z M7.99414062,7.02734375 C7.72070312,7.02734375 7.51367188,6.93359375 7.37304688,6.74609375 C7.23242188,6.55859375 7.16210938,6.3125 7.16210938,6.0078125 C7.16210938,5.69921875 7.23144531,5.45800781 7.37011719,5.28417969 C7.50878906,5.11035156 7.7109375,5.0234375 7.9765625,5.0234375 C8.25,5.0234375 8.45605469,5.11132812 8.59472656,5.28710938 C8.73339844,5.46289062 8.80273438,5.703125 8.80273438,6.0078125 C8.80273438,6.3125 8.73535156,6.55859375 8.60058594,6.74609375 C8.46582031,6.93359375 8.26367188,7.02734375 7.99414062,7.02734375 Z M7.99414062,10.7480469 C7.69335938,10.7480469 7.45019531,10.6494141 7.26464844,10.4521484 C7.07910156,10.2548828 6.98632812,9.98632812 6.98632812,9.64648438 C6.98632812,9.29492188 7.078125,9.02441406 7.26171875,8.83496094 C7.4453125,8.64550781 7.68554688,8.55078125 7.98242188,8.55078125 C8.27929688,8.55078125 8.51855469,8.64550781 8.70019531,8.83496094 C8.88183594,9.02441406 8.97265625,9.29492188 8.97265625,9.64648438 C8.97265625,9.99023438 8.8828125,10.2597656 8.703125,10.4550781 C8.5234375,10.6503906 8.28710938,10.7480469 7.99414062,10.7480469 Z"></path>
      </svg>