<svg width="1em" height="1em" viewBox="0 0 16 16" fill="currentColor" xmlns="http://www.w3.org/2000/svg">
        <path d="M6.4296875,12.2714844 C7.33984375,12.2714844 8.13671875,12.0859375 8.8203125,11.7148438 C9.50390625,11.34375 10.0302734,10.8125 10.3994141,10.1210938 C10.7685547,9.4296875 10.953125,8.61328125 10.953125,7.671875 L10.953125,7.671875 L10.953125,6.91601562 C10.9453125,6.24023438 10.8144531,5.64355469 10.5605469,5.12597656 C10.3066406,4.60839844 9.95214844,4.20800781 9.49707031,3.92480469 C9.04199219,3.64160156 8.53320312,3.5 7.97070312,3.5 C7.41601562,3.5 6.90917969,3.63671875 6.45019531,3.91015625 C5.99121094,4.18359375 5.63476562,4.5546875 5.38085938,5.0234375 C5.12695312,5.4921875 5,6 5,6.546875 C5,7.421875 5.2265625,8.12109375 5.6796875,8.64453125 C6.1328125,9.16796875 6.74609375,9.4296875 7.51953125,9.4296875 C8.046875,9.4296875 8.5234375,9.23828125 8.94921875,8.85546875 C8.796875,10.0078125 8.04101562,10.6171875 6.68164062,10.6835938 L6.68164062,10.6835938 L6.30664062,10.6894531 L6.30664062,12.2714844 L6.4296875,12.2714844 Z M8.05273438,8.00585938 C7.72070312,8.00585938 7.45898438,7.87402344 7.26757812,7.61035156 C7.07617188,7.34667969 6.98046875,6.9921875 6.98046875,6.546875 C6.98046875,6.125 7.07421875,5.765625 7.26171875,5.46875 C7.44921875,5.171875 7.68164062,5.0234375 7.95898438,5.0234375 C8.27148438,5.0234375 8.51953125,5.15429688 8.703125,5.41601562 C8.88671875,5.67773438 8.97851562,6.08203125 8.97851562,6.62890625 L8.97851562,6.62890625 L8.97851562,7.44921875 C8.79101562,7.8203125 8.48242188,8.00585938 8.05273438,8.00585938 Z"></path>
      </svg>