<svg width="2em" height="2em" viewBox="0 0 16 16" fill="rgb(208, 0, 0)" xmlns="http://www.w3.org/2000/svg">
        <circle cx="8" cy="8" r="8"></circle>
        <path data-paper-data="{&quot;skipFill&quot;:true}" fill="white" d="M5.87109375,10.9375 C6.36328125,10.9348958 6.80924479,10.8170573 7.20898438,10.5839844 C7.60872396,10.3509115 7.91861979,10.0279948 8.13867188,9.61523438 C8.35872396,9.20247396 8.46875,8.73567708 8.46875,8.21484375 L8.46875,8.21484375 L8.46875,7.953125 C8.46614583,7.4375 8.35221354,6.97200521 8.12695312,6.55664062 C7.90169271,6.14127604 7.58854167,5.81966146 7.1875,5.59179688 C6.78645833,5.36393229 6.33463542,5.25 5.83203125,5.25 L5.83203125,5.25 L4,5.25 L4,10.9375 L5.87109375,10.9375 Z M5.84765625,9.8828125 L5.37109375,9.8828125 L5.37109375,6.30859375 L5.83203125,6.30859375 C6.23567708,6.30859375 6.54296875,6.44791667 6.75390625,6.7265625 C6.96484375,7.00520833 7.0703125,7.41927083 7.0703125,7.96875 L7.0703125,7.96875 L7.0703125,8.21484375 C7.0703125,8.76692708 6.96484375,9.18294271 6.75390625,9.46289062 C6.54296875,9.74283854 6.24088542,9.8828125 5.84765625,9.8828125 L5.84765625,9.8828125 Z M12.0078125,10.9375 L12.0078125,5.25 L11.8867188,5.25 L9.390625,6.11328125 L9.390625,7.11328125 L10.6875,6.734375 L10.6875,10.9375 L12.0078125,10.9375 Z"></path>
      </svg>