<svg width="1em" height="1em" viewBox="0 0 16 16" fill="rgb(208, 0, 0)" xmlns="http://www.w3.org/2000/svg">
        <circle cx="8" cy="8" r="8"></circle>
        <path data-paper-data="{&quot;skipFill&quot;:true}" fill="white" d="M5.37109375,10.7695312 C5.86328125,10.7669271 6.30924479,10.6490885 6.70898438,10.4160156 C7.10872396,10.1829427 7.41861979,9.86002604 7.63867188,9.44726562 C7.85872396,9.03450521 7.96875,8.56770833 7.96875,8.046875 L7.96875,8.046875 L7.96875,7.78515625 C7.96614583,7.26953125 7.85221354,6.80403646 7.62695312,6.38867188 C7.40169271,5.97330729 7.08854167,5.65169271 6.6875,5.42382812 C6.28645833,5.19596354 5.83463542,5.08203125 5.33203125,5.08203125 L5.33203125,5.08203125 L3.5,5.08203125 L3.5,10.7695312 L5.37109375,10.7695312 Z M5.34765625,9.71484375 L4.87109375,9.71484375 L4.87109375,6.140625 L5.33203125,6.140625 C5.73567708,6.140625 6.04296875,6.27994792 6.25390625,6.55859375 C6.46484375,6.83723958 6.5703125,7.25130208 6.5703125,7.80078125 L6.5703125,7.80078125 L6.5703125,8.046875 C6.5703125,8.59895833 6.46484375,9.01497396 6.25390625,9.29492188 C6.04296875,9.57486979 5.74088542,9.71484375 5.34765625,9.71484375 L5.34765625,9.71484375 Z M12.5585938,10.7695312 L12.5585938,9.75390625 L10.3203125,9.75390625 L11.0546875,8.90625 C11.4453125,8.515625 11.7285156,8.20377604 11.9042969,7.97070312 C12.0800781,7.73763021 12.2096354,7.51497396 12.2929688,7.30273438 C12.3763021,7.09049479 12.4179688,6.87239583 12.4179688,6.6484375 C12.4179688,6.1171875 12.2519531,5.70963542 11.9199219,5.42578125 C11.5878906,5.14192708 11.1145833,5 10.5,5 C10.1171875,5 9.77083333,5.08333333 9.4609375,5.25 C9.15104167,5.41666667 8.90885417,5.64778646 8.734375,5.94335938 C8.55989583,6.23893229 8.47265625,6.56119792 8.47265625,6.91015625 L8.47265625,6.91015625 L9.79296875,6.91015625 C9.79296875,6.65494792 9.85546875,6.44205729 9.98046875,6.27148438 C10.1054688,6.10091146 10.2682292,6.015625 10.46875,6.015625 C10.671875,6.015625 10.8268229,6.07942708 10.9335938,6.20703125 C11.0403646,6.33463542 11.09375,6.52083333 11.09375,6.765625 C11.09375,7.06770833 10.8684896,7.47526042 10.4179688,7.98828125 L10.4179688,7.98828125 L8.58984375,9.91015625 L8.58984375,10.7695312 L12.5585938,10.7695312 Z"></path>
      </svg>