<svg width="1em" height="1em" viewBox="0 0 16 16" fill="rgb(208, 0, 0)" xmlns="http://www.w3.org/2000/svg">
        <circle cx="8" cy="8" r="8"></circle>
        <path data-paper-data="{&quot;skipFill&quot;:true}" fill="white" d="M5.3984375,10.75 C5.890625,10.7473958 6.33658854,10.6295573 6.73632812,10.3964844 C7.13606771,10.1634115 7.44596354,9.84049479 7.66601562,9.42773438 C7.88606771,9.01497396 7.99609375,8.54817708 7.99609375,8.02734375 L7.99609375,8.02734375 L7.99609375,7.765625 C7.99348958,7.25 7.87955729,6.78450521 7.65429688,6.36914062 C7.42903646,5.95377604 7.11588542,5.63216146 6.71484375,5.40429688 C6.31380208,5.17643229 5.86197917,5.0625 5.359375,5.0625 L5.359375,5.0625 L3.52734375,5.0625 L3.52734375,10.75 L5.3984375,10.75 Z M5.375,9.6953125 L4.8984375,9.6953125 L4.8984375,6.12109375 L5.359375,6.12109375 C5.76302083,6.12109375 6.0703125,6.26041667 6.28125,6.5390625 C6.4921875,6.81770833 6.59765625,7.23177083 6.59765625,7.78125 L6.59765625,7.78125 L6.59765625,8.02734375 C6.59765625,8.57942708 6.4921875,8.99544271 6.28125,9.27539062 C6.0703125,9.55533854 5.76822917,9.6953125 5.375,9.6953125 L5.375,9.6953125 Z M10.4609375,10.828125 C11.0963542,10.828125 11.609375,10.6757812 12,10.3710938 C12.390625,10.0664062 12.5859375,9.66015625 12.5859375,9.15234375 C12.5859375,8.82421875 12.5,8.54882812 12.328125,8.32617188 C12.15625,8.10351562 11.9192708,7.9375 11.6171875,7.828125 C11.9036458,7.69270833 12.1217448,7.51627604 12.2714844,7.29882812 C12.421224,7.08138021 12.4960938,6.85026042 12.4960938,6.60546875 C12.4960938,6.10026042 12.3151042,5.703125 11.953125,5.4140625 C11.5911458,5.125 11.09375,4.98046875 10.4609375,4.98046875 C10.1067708,4.98046875 9.78190104,5.04622396 9.48632812,5.17773438 C9.19075521,5.30924479 8.95963542,5.4921875 8.79296875,5.7265625 C8.62630208,5.9609375 8.54296875,6.22786458 8.54296875,6.52734375 L8.54296875,6.52734375 L9.859375,6.52734375 C9.859375,6.37630208 9.92382812,6.25 10.0527344,6.1484375 C10.1816406,6.046875 10.3333333,5.99609375 10.5078125,5.99609375 C10.7213542,5.99609375 10.8867188,6.05533854 11.0039062,6.17382812 C11.1210938,6.29231771 11.1796875,6.4453125 11.1796875,6.6328125 C11.1796875,7.11458333 10.9335938,7.35546875 10.4414062,7.35546875 L10.4414062,7.35546875 L9.8203125,7.35546875 L9.8203125,8.3359375 L10.4609375,8.3359375 C10.7135417,8.3359375 10.9114583,8.39583333 11.0546875,8.515625 C11.1979167,8.63541667 11.2695312,8.83854167 11.2695312,9.125 C11.2695312,9.32552083 11.2005208,9.49023438 11.0625,9.61914062 C10.9244792,9.74804688 10.7395833,9.8125 10.5078125,9.8125 C10.3020833,9.8125 10.1289062,9.74869792 9.98828125,9.62109375 C9.84765625,9.49348958 9.77734375,9.34244792 9.77734375,9.16796875 L9.77734375,9.16796875 L8.453125,9.16796875 C8.453125,9.48828125 8.53515625,9.77408854 8.69921875,10.0253906 C8.86328125,10.2766927 9.10481771,10.4733073 9.42382812,10.6152344 C9.74283854,10.7571615 10.0885417,10.828125 10.4609375,10.828125 Z"></path>
      </svg>