<svg width="2em" height="2em" viewBox="0 0 16 16" fill="rgb(208, 0, 0)" xmlns="http://www.w3.org/2000/svg">
        <circle cx="8" cy="8" r="8"></circle>
        <path data-paper-data="{&quot;skipFill&quot;:true}" fill="white" d="M5.37109375,10.9375 C5.86328125,10.9348958 6.30924479,10.8170573 6.70898438,10.5839844 C7.10872396,10.3509115 7.41861979,10.0279948 7.63867188,9.61523438 C7.85872396,9.20247396 7.96875,8.73567708 7.96875,8.21484375 L7.96875,8.21484375 L7.96875,7.953125 C7.96614583,7.4375 7.85221354,6.97200521 7.62695312,6.55664062 C7.40169271,6.14127604 7.08854167,5.81966146 6.6875,5.59179688 C6.28645833,5.36393229 5.83463542,5.25 5.33203125,5.25 L5.33203125,5.25 L3.5,5.25 L3.5,10.9375 L5.37109375,10.9375 Z M5.34765625,9.8828125 L4.87109375,9.8828125 L4.87109375,6.30859375 L5.33203125,6.30859375 C5.73567708,6.30859375 6.04296875,6.44791667 6.25390625,6.7265625 C6.46484375,7.00520833 6.5703125,7.41927083 6.5703125,7.96875 L6.5703125,7.96875 L6.5703125,8.21484375 C6.5703125,8.76692708 6.46484375,9.18294271 6.25390625,9.46289062 C6.04296875,9.74283854 5.74088542,9.8828125 5.34765625,9.8828125 L5.34765625,9.8828125 Z M12.0664062,10.9375 L12.0664062,9.73046875 L12.6445312,9.73046875 L12.6445312,8.71484375 L12.0664062,8.71484375 L12.0664062,5.25 L10.75,5.25 L10.75,5.26171875 L8.47265625,8.92578125 L8.55078125,9.73046875 L10.75,9.73046875 L10.75,10.9375 L12.0664062,10.9375 Z M10.75,8.71484375 L9.7265625,8.71484375 L10.6679688,7.09765625 L10.75,6.96484375 L10.75,8.71484375 Z"></path>
      </svg>