<svg width="1em" height="1em" viewBox="0 0 16 16" fill="rgb(208, 0, 0)" xmlns="http://www.w3.org/2000/svg">
        <circle cx="8" cy="8" r="8"></circle>
        <path data-paper-data="{&quot;skipFill&quot;:true}" fill="white" d="M5.37109375,10.6875 C5.86328125,10.6848958 6.30924479,10.5670573 6.70898438,10.3339844 C7.10872396,10.1009115 7.41861979,9.77799479 7.63867188,9.36523438 C7.85872396,8.95247396 7.96875,8.48567708 7.96875,7.96484375 L7.96875,7.96484375 L7.96875,7.703125 C7.96614583,7.1875 7.85221354,6.72200521 7.62695312,6.30664062 C7.40169271,5.89127604 7.08854167,5.56966146 6.6875,5.34179688 C6.28645833,5.11393229 5.83463542,5 5.33203125,5 L5.33203125,5 L3.5,5 L3.5,10.6875 L5.37109375,10.6875 Z M5.34765625,9.6328125 L4.87109375,9.6328125 L4.87109375,6.05859375 L5.33203125,6.05859375 C5.73567708,6.05859375 6.04296875,6.19791667 6.25390625,6.4765625 C6.46484375,6.75520833 6.5703125,7.16927083 6.5703125,7.71875 L6.5703125,7.71875 L6.5703125,7.96484375 C6.5703125,8.51692708 6.46484375,8.93294271 6.25390625,9.21289062 C6.04296875,9.49283854 5.74088542,9.6328125 5.34765625,9.6328125 L5.34765625,9.6328125 Z M10.5585938,10.765625 C10.9596354,10.765625 11.3072917,10.6861979 11.6015625,10.5273438 C11.8958333,10.3684896 12.124349,10.141276 12.2871094,9.84570312 C12.4498698,9.55013021 12.53125,9.22005208 12.53125,8.85546875 C12.53125,8.25130208 12.3795573,7.78190104 12.0761719,7.44726562 C11.7727865,7.11263021 11.3385417,6.9453125 10.7734375,6.9453125 C10.6276042,6.9453125 10.4785156,6.96614583 10.3261719,7.0078125 C10.1738281,7.04947917 10.0507812,7.09765625 9.95703125,7.15234375 L9.95703125,7.15234375 L10.0859375,6.0234375 L12.3398438,6.0234375 L12.3398438,5 L9.015625,5 L8.66796875,7.90625 L9.71484375,8.15234375 C9.86588542,7.95442708 10.0950521,7.85546875 10.4023438,7.85546875 C10.9440104,7.85546875 11.2148438,8.15885417 11.2148438,8.765625 C11.2148438,9.421875 10.9934896,9.75 10.5507812,9.75 C10.3554688,9.75 10.1979167,9.68880208 10.078125,9.56640625 C9.95833333,9.44401042 9.89192708,9.27864583 9.87890625,9.0703125 L9.87890625,9.0703125 L8.55859375,9.0703125 C8.55598958,9.39322917 8.64322917,9.68294271 8.8203125,9.93945312 C8.99739583,10.1959635 9.2421875,10.3977865 9.5546875,10.5449219 C9.8671875,10.6920573 10.2018229,10.765625 10.5585938,10.765625 Z"></path>
      </svg>