 <svg width="1em" height="1em" viewBox="0 0 16 16" fill="currentColor" xmlns="http://www.w3.org/2000/svg">
      <path d="M8,0.5 C12.1421356,0.5 15.5,3.85786438 15.5,8 C15.5,12.1421356 12.1421356,15.5 8,15.5 C3.85786438,15.5 0.5,12.1421356 0.5,8 C0.5,3.85786438 3.85786438,0.5 8,0.5 Z"></path>
      <path data-paper-data="{&quot;skipFill&quot;:true}" fill="white" d="M8,1.5 C4.41014913,1.5 1.5,4.41014913 1.5,8 C1.5,11.5898509 4.41014913,14.5 8,14.5 C11.5898509,14.5 14.5,11.5898509 14.5,8 C14.5,4.41014913 11.5898509,1.5 8,1.5 Z"></path>
      <path d="M12.75 2.896L13.104 3.25 3.25 13.104 2.896 12.75zM14 4.646L14.354 5 5 14.354 4.646 14zM14.75 6.896L15.104 7.25 7.25 15.104 6.896 14.75zM11 1.646L11.354 2 2 11.354 1.646 11zM8.75.896L9.104 1.25 1.25 9.104.896 8.75z"></path>
    </svg>