<svg width="1em" height="1em" viewBox="0 0 16 16" fill="currentColor" xmlns="http://www.w3.org/2000/svg">
      <path d="M2.58257621,9.9110239 L3.29109316,10.6180776 C2.39865532,11.6392939 1.74942591,13.0927432 1.33809121,14.9922091 L1.27225024,15.3103223 L1.17530685,15.8008343 L0.194282937,15.6069475 L0.291226325,15.1164355 C0.734758506,12.8722614 1.50058568,11.1318225 2.58257621,9.9110239 Z M9.98447944,7.3124699 L10.7380126,8.06695547 C9.86984874,8.50900657 8.90378042,8.74815171 7.84051752,8.78114421 L7.58356819,8.78510262 C7.42860355,8.78510262 7.27635333,8.7896225 7.12681152,8.7986779 L6.22527306,7.89635379 C6.57627074,7.83607798 6.94148695,7.80023139 7.32086164,7.78896973 L7.58356819,7.78510262 C8.45667833,7.78510262 9.25678879,7.62844237 9.98447944,7.3124699 Z M14.5789571,0.184368353 L15.5475652,0.432961032 L15.4232689,0.917265089 C14.9736805,2.66902629 14.3772849,4.13403002 13.6353509,5.30647445 L12.9108881,4.58261234 C13.4925689,3.61465752 13.9769592,2.42417285 14.3649794,1.0069487 L14.4546608,0.668672411 L14.5789571,0.184368353 Z"></path>
    </svg>