<svg width="1em" height="1em" viewBox="0 0 16 16" fill="currentColor" xmlns="http://www.w3.org/2000/svg">
        <path d="M11.25 4.625L11.25 9.625 10.341374 9.625 10.341374 5.53432333 6.25 5.53432333 6.25 4.625zM10.2409289.951451352L14.7409289 5.78427135 14.0090711 6.46572865 9.50907106 1.63290865zM11.3568579.125L15.8568579 4.95782 15.125 5.6392773 10.625.806457296z"></path>
        <path d="M9.12136231,6.10095759 L9.80529821,6.8304997 C9.38820506,7.22151891 8.98674435,7.54698799 8.29305,8.05531459 L6.35960152,9.44497497 C5.51544398,10.0620949 5.03731501,10.4537979 4.62752107,10.8731359 L4.53403078,10.970512 C2.94024358,12.659855 3.89793272,13.9190436 9.4242622,15.354352 L10.0572023,15.5145863 L9.81742282,16.4854137 C3.12068643,14.8314226 1.41648208,12.8177488 3.80665161,10.2842762 L4.01573257,10.0699409 C4.47794958,9.61207214 5.0165952,9.18234805 5.95488155,8.50264463 L7.50867675,7.38952006 C8.23004732,6.86606797 8.63864102,6.54397974 9.02505321,6.19019814 L9.12136231,6.10095759 Z"></path>
      </svg>