<svg width="2em" height="2em" viewBox="0 0 16 16" fill="currentColor" xmlns="http://www.w3.org/2000/svg">
        <path d="M16 0L16 5 15.091374 5 15.091374.90932333 11 .90932333 11 0zM.489055126 13.0549879C1.13074322 12.4085336 2.17191859 12.3661702 2.84983662 12.9517418L2.89763125 12.9946365 2.38619838 13.5432133C2.0083507 13.1909494 1.39463022 13.2072931 1.0213438 13.5833521.667096799 13.9402303.661115336 14.4885863.995102822 14.8373449L1.03218772 14.8739303.520754848 15.422507C-.161941731 14.7860355-.174301066 13.7232711.489055126 13.0549879zM4.30213197 12.445853C4.90507244 13.0781583 4.91379965 14.1172016 4.32725201 14.7817402 3.73835271 15.4489431 2.76471121 15.4953086 2.14138661 14.8905793L2.09746912 14.8462766 2.64025312 14.3287C2.95439425 14.6581407 3.45004664 14.6422122 3.76495341 14.2854335 4.08440361 13.9235073 4.09113706 13.3539269 3.79365323 13.0016551L3.75934798 12.9634296 4.30213197 12.445853zM4.56261863 8.87544478C5.20430673 8.22899055 6.2454821 8.18662717 6.92340012 8.77219868L6.97119476 8.81509346 6.45976189 9.36367018C6.0819142 9.01140637 5.46819372 9.02775002 5.0949073 9.40380903 4.74066031 9.76068719 4.73467884 10.3090433 5.06866633 10.6578018L5.10575123 10.6943872 4.59431836 11.2429639C3.91162178 10.6064924 3.89926244 9.54372806 4.56261863 8.87544478zM8.61405513 4.50044478C9.25574322 3.85399055 10.2969186 3.81162717 10.9748366 4.39719868L11.0226313 4.44009346 10.5111984 4.98867018C10.1333507 4.63640637 9.51963022 4.65275002 9.1463438 5.02880903 8.7920968 5.38568719 8.78611534 5.93404325 9.12010282 6.28280181L9.15718772 6.31938722 8.64575485 6.86796394C7.96305827 6.23149239 7.95069893 5.16872806 8.61405513 4.50044478zM8.31362268 8.25C8.99631926 8.88647154 9.00867859 9.94923588 8.3453224 10.6175192 7.7036343 11.2639734 6.66245894 11.3063368 5.98454091 10.7207653L5.93674627 10.6778705 6.44817914 10.1292938C6.82602683 10.4815576 7.43974731 10.4652139 7.81303373 10.0891549 8.16728073 9.73227674 8.17326219 9.18392068 7.8392747 8.83516213L7.80218981 8.79857672 8.31362268 8.25zM12.3650592 3.875C13.0477557 4.51147154 13.0601151 5.57423588 12.3967589 6.24251915 11.7550708 6.88897339 10.7138954 6.93133677 10.0359774 6.34576525L9.98818276 6.30287048 10.4996156 5.75429376C10.8774633 6.10655757 11.4911838 6.09021392 11.8644702 5.71415491 12.2187172 5.35727674 12.2246987 4.80892068 11.8907112 4.46016213L11.8536263 4.42357672 12.3650592 3.875z"></path>
        <path d="M6.92677692 9.94592709C7.30182735 10.2506547 7.35883719 10.8017265 7.05410516 11.1767769 6.7493775 11.5518274 6.19830576 11.6088372 5.82325533 11.3041052 5.4482049 10.9993775 5.39119506 10.4483058 5.69592709 10.0732553 6.00065475 9.6982049 6.55172649 9.64119506 6.92677692 9.94592709zM10.9782134 5.57092709C11.3532638 5.87565475 11.4102737 6.42672649 11.1055417 6.80177692 10.800814 7.17682735 10.2497423 7.23383719 9.87469182 6.92910516 9.49964139 6.6243775 9.44263155 6.07330576 9.74736358 5.69825533 10.0520912 5.3232049 10.603163 5.26619506 10.9782134 5.57092709zM2.92677692 14.1959271C3.30182735 14.5006547 3.35883719 15.0517265 3.05410516 15.4267769 2.7493775 15.8018274 2.19830576 15.8588372 1.82325533 15.5541052 1.4482049 15.2493775 1.39119506 14.6983058 1.69592709 14.3232553 2.00065475 13.9482049 2.55172649 13.8911951 2.92677692 14.1959271z"></path>
      </svg>