<svg width="1em" height="1em" viewBox="0 0 16 16" fill="currentColor" xmlns="http://www.w3.org/2000/svg">
        <path d="M11.7260579 3.61552648C12.6607993 4.39268261 12.7638513 5.76106982 11.9533194 6.66170952 11.1911771 7.50858003 9.89474963 7.63657946 8.97566394 6.98392692L8.897 6.923 8.80440731 6.88034712C8.27483442 6.66567401 7.65735616 6.83485239 7.32945762 7.27947277L7.25910101 7.38691763C6.96259832 7.89989585 7.1220637 8.53704646 7.61739864 8.87216316L7.72863894 8.93919559 7.88731574 9.07266383C8.63140573 10.0262597 8.42961951 11.3839168 7.44219347 12.0957257 6.51315816 12.7654422 5.21775055 12.6255369 4.46167093 11.7971416L4.411 11.738 4.34304789 11.694284C3.84946747 11.4130802 3.21238117 11.5003565 2.82291216 11.8999767L2.7376083 11.9977157C2.37029479 12.46845 2.43781965 13.1189098 2.87890091 13.5138422L2.97911369 13.5944008 2.39434262 14.4055992C1.40691659 13.6937903 1.20513037 12.3361332 1.94922036 11.3825373 2.64910293 10.4855959 3.9335985 10.2710878 4.89700679 10.8601449L5.03899667 10.9545454 5.1408051 11.0525554C5.5435663 11.568718 6.31605134 11.6747872 6.8574224 11.2845273 7.3515562 10.9283196 7.47651088 10.2854948 7.17100448 9.79130613L7.147 9.757 7.12116491 9.74224165C6.19361975 9.16046461 5.84800574 7.99675413 6.32026533 7.0240666L6.39332023 6.88649417C6.96266249 5.90147723 8.21089993 5.52102059 9.24912525 5.98289726L9.39591852 6.05463548 9.48005759 6.1112194C9.99105294 6.53606753 10.7698222 6.48188566 11.2100073 5.99276475 11.6112489 5.54691667 11.5910604 4.89392364 11.1806515 4.47134083L11.0867454 4.38447352 11.7260579 3.61552648zM15.946 0L15.946 5.867 14.88 5.867 14.88 1.067 10.08 1.067 10.08 0z"></path>
      </svg>