<svg width="2em" height="2em" viewBox="0 0 16 16" fill="currentColor" xmlns="http://www.w3.org/2000/svg">
        <path d="M15.946 0L15.946 5.867 14.88 5.867 14.88 1.067 10.08 1.067 10.08 0z"></path>
        <path d="M14.5250926,0.714805774 L15.2349074,1.41919423 C14.4398731,2.220353 13.565432,3.02523036 12.5200085,3.9302531 L12.0090099,4.36820951 C11.3343585,4.93614436 8.39081347,7.38945476 7.61539296,8.08058 C6.15868117,9.37893396 5.26879132,10.3631323 4.83465071,11.2104236 C3.9341334,12.9679198 5.1750432,14.2661171 9.75384043,15.4383139 L10.0572023,15.5145863 L9.81742282,16.4854137 C4.45782756,15.1616759 2.62573876,13.3285199 3.94467646,10.7544128 C4.41889469,9.82890392 5.28918807,8.84131424 6.66754853,7.5882702 L6.95002803,7.33406174 C7.79792959,6.57833479 11.1438362,3.79325516 11.469946,3.51444393 C12.5426101,2.59735778 13.4328821,1.79327458 14.2302569,1.00841161 L14.5250926,0.714805774 Z"></path>
      </svg>