<svg width="2em" height="2em" viewBox="0 0 16 16" fill="currentColor" xmlns="http://www.w3.org/2000/svg">
        <path d="M7.56212399 8C8.24193071 8.57620085 8.31687705 9.59075357 7.72740381 10.2585079 7.17312279 10.8863965 6.23027374 10.9812982 5.56185294 10.497407L5.50464325 10.4522345 5.43730363 10.4206107C5.05216268 10.2614472 4.60309105 10.3868799 4.36462123 10.7165313L4.31345318 10.7961933C4.09781652 11.1765268 4.21379045 11.6489244 4.57403126 11.8973874L4.65493267 11.9470867 4.77033309 12.0460431C5.31148527 12.7530603 5.16473279 13.7596575 4.44661031 14.2874084 3.77095348 14.7839511 2.82884613 14.6802222 2.27897429 14.0660315L2.24212298 14.0221826 2.19270365 13.9897706C1.83373884 13.7812798 1.37040693 13.8459884 1.08715893 14.1422757L1.02512024 14.2147416C.757985202 14.5637545.80709381 15.0460199 1.12787771 15.3388315L1.20075916 15.3985595.775474398 16C.0573519164 15.4722491-.0894005626 14.4656519.451751613 13.7586347.96075319 13.0936223 1.89492457 12.9345812 2.59557974 13.3713213L2.69884431 13.4413119 2.77288623 13.5139787C3.06580121 13.8966731 3.62760417 13.9753152 4.02132554 13.6859679 4.3806928 13.4218675 4.47156823 12.9452629 4.24938347 12.5788604L4.2319258 12.5534251 4.21313679 12.542483C3.5385637 12.1111405 3.28721 11.2483397 3.63066887 10.5271675L3.68379929 10.4251682C4.09786319 9.69485475 5.00566523 9.41277573 5.76073236 9.75522137L5.86749028 9.80840968 5.92868186 9.85036226C6.30031197 10.1653541 6.86668526 10.1251825 7.18681736 9.76253735 7.47862719 9.43197566 7.46394479 8.9478321 7.16546789 8.6345198L7.09717304 8.57011444 7.56212399 8zM11.25 4.625L11.25 9.625 10.341374 9.625 10.341374 5.53432333 6.25 5.53432333 6.25 4.625zM10.2409289.951451352L14.7409289 5.78427135 14.0090711 6.46572865 9.50907106 1.63290865zM11.3568579.125L15.8568579 4.95782 15.125 5.6392773 10.625.806457296z"></path>
      </svg>