<svg width="1em" height="1em" viewBox="0 0 16 16" fill="currentColor" xmlns="http://www.w3.org/2000/svg">
      <path d="M15.5 0.5L0.5 0.5 0.5 15.5 15.5 15.5z"></path>
      <path d="M15 1L15 15 1 15 1 1z"></path>
      <path data-paper-data="{&quot;skipFill&quot;:true}" fill="white" d="M14.5 1.5L14.5 14.5 1.5 14.5 1.5 1.5z"></path>
      <path d="M15 .646L15.354 1 1 15.354.646 15zM15 3.646L15.354 4 4 15.354 3.646 15zM15 6.646L15.354 7 7 15.354 6.646 15zM15 9.646L15.354 10 10 15.354 9.646 15zM15 12.646L15.354 13 13 15.354 12.646 15zM12 .646L12.354 1 1 12.354.646 12zM9 .646L9.354 1 1 9.354.646 9zM6 .646L6.354 1 1 6.354.646 6zM3 .646L3.354 1 1 3.354.646 3z"></path>
    </svg>