<svg width="1em" height="1em" viewBox="0 0 16 16" fill="currentColor" xmlns="http://www.w3.org/2000/svg">
        <path d="M8.02252874,15.9521839 C7.89241379,15.9521839 7.76091954,15.9641379 7.63264368,15.9471264 C7.56965517,15.9388506 7.46666667,15.8822989 7.46206897,15.8390805 C7.44137931,15.6409195 7.30344828,15.6432184 7.16413793,15.6285057 C7.03172414,15.6147126 6.91126437,15.5912644 6.84643678,15.7650575 C6.82850575,15.8137931 6.69333333,15.8505747 6.61977011,15.8404598 C6.40091954,15.8096552 6.18482759,15.7549425 5.96873563,15.703908 C5.8262069,15.6703448 5.68321839,15.6441379 5.7062069,15.4285057 C5.71126437,15.3802299 5.57885057,15.2896552 5.49701149,15.2675862 C5.40137931,15.2418391 5.29057471,15.2643678 5.18758621,15.2772414 C5.08643678,15.2896552 4.97471264,15.3554023 4.89011494,15.3282759 C4.69563218,15.2652874 4.51494253,15.16 4.3291954,15.0708046 C4.1816092,15 4.04229885,14.9443678 4.11816092,14.7163218 C4.16321839,14.5816092 3.76413793,14.3563218 3.65241379,14.4551724 C3.51816092,14.5747126 3.4216092,14.5296552 3.31126437,14.4427586 C3.14896552,14.3149425 2.98666667,14.1875862 2.82528736,14.0583908 C2.70804598,13.9645977 2.61471264,13.8809195 2.70206897,13.6933333 C2.73103448,13.6308046 2.60827586,13.4758621 2.52597701,13.3912644 C2.47908046,13.3429885 2.35632184,13.3149425 2.29885057,13.3425287 C2.17057471,13.4041379 2.09885057,13.3618391 2.02390805,13.2689655 C1.89425287,13.108046 1.76,12.9508046 1.63172414,12.7894253 C1.52735632,12.657931 1.40643678,12.5411494 1.58528736,12.3581609 C1.67954023,12.2616092 1.40505747,11.8873563 1.26896552,11.9310345 C1.10528736,11.9834483 1.04091954,11.9043678 0.982988506,11.7871264 C0.87816092,11.5747126 0.767356322,11.3645977 0.67816092,11.1457471 C0.649195402,11.0749425 0.648275862,10.9301149 0.689195402,10.9043678 C0.870344828,10.7889655 0.785287356,10.6625287 0.744827586,10.5250575 C0.705287356,10.3908046 0.646896552,10.3172414 0.488275862,10.325977 C0.436781609,10.3287356 0.349885057,10.2367816 0.329655172,10.1728736 C0.261609195,9.95448276 0.217931034,9.72873563 0.162298851,9.5062069 C0.124597701,9.35586207 0.113563218,9.23724138 0.295632184,9.14758621 C0.356321839,9.11770115 0.366896552,8.93195402 0.352643678,8.82390805 C0.342528736,8.7462069 0.254712644,8.67724138 0.197701149,8.60735632 C0.142988506,8.54022989 0.0386206897,8.48 0.0335632184,8.41057471 C0.0137931034,8.14436782 0.0193103448,7.87586207 0.0294252874,7.60873563 C0.0317241379,7.55402299 0.0822988506,7.47678161 0.131954023,7.45149425 C0.413333333,7.30758621 0.445517241,7.03356322 0.203218391,6.83908046 C0.16,6.80413793 0.125977011,6.71724138 0.135632184,6.66298851 C0.186206897,6.38528736 0.246436782,6.10896552 0.31908046,5.83632184 C0.333793103,5.78206897 0.422068966,5.70758621 0.472643678,5.71034483 C0.622068966,5.71954023 0.68045977,5.65149425 0.708505747,5.52137931 C0.736551724,5.39034483 0.857471264,5.26022989 0.668505747,5.13885057 C0.624367816,5.1108046 0.616091954,4.97103448 0.64183908,4.9016092 C0.712643678,4.70850575 0.811034483,4.52597701 0.897011494,4.3383908 C0.969195402,4.18068966 1.03264368,4.04505747 1.2662069,4.10068966 C1.42390805,4.13793103 1.6137931,3.75310345 1.50666667,3.6216092 C1.41977011,3.51448276 1.43126437,3.43494253 1.50896552,3.33885057 C1.66252874,3.14804598 1.80505747,2.94804598 1.96735632,2.76597701 C2.0183908,2.70896552 2.12689655,2.65655172 2.19586207,2.66988506 C2.49425287,2.72735632 2.69195402,2.53149425 2.62574713,2.23954023 C2.61103448,2.17563218 2.64873563,2.07126437 2.69885057,2.0262069 C2.89195402,1.85287356 3.09333333,1.68597701 3.30712644,1.53931034 C3.36551724,1.49931034 3.47770115,1.53885057 3.56505747,1.53931034 C3.64551724,1.53977011 3.74436782,1.56551724 3.80229885,1.52873563 C3.9062069,1.46298851 4.09655172,1.43908046 4.04229885,1.24643678 C4.00137931,1.10022989 4.06712644,1.03034483 4.18068966,0.974712644 C4.4,0.867126437 4.61563218,0.748965517 4.84229885,0.659310345 C4.91218391,0.631724138 5.05287356,0.652413793 5.09241379,0.703908046 C5.20137931,0.846436782 5.30712644,0.779770115 5.4183908,0.739310345 C5.52965517,0.699310345 5.65609195,0.684137931 5.65333333,0.507586207 C5.65241379,0.444137931 5.73195402,0.340689655 5.79494253,0.32137931 C6.04275862,0.245057471 6.29609195,0.181609195 6.55218391,0.143448276 C6.62804598,0.131954023 6.71678161,0.222988506 6.80229885,0.260229885 C6.88367816,0.295632184 6.97241379,0.354942529 7.05149425,0.345747126 C7.16367816,0.333333333 7.33931034,0.391264368 7.36,0.192643678 C7.37609195,0.0390804598 7.46988506,0.00965517241 7.59862069,0.0101149425 C7.79770115,0.0105747126 7.99678161,0.00459770115 8.19586207,0.00505747126 C8.36229885,0.00505747126 8.52597701,-0.0225287356 8.57195402,0.227586207 C8.60045977,0.382068966 9.04689655,0.396781609 9.11724138,0.249195402 C9.18068966,0.115862069 9.2583908,0.0914942529 9.39034483,0.124137931 C9.62758621,0.183448276 9.87172414,0.217471264 10.103908,0.290574713 C10.1793103,0.314482759 10.2257471,0.428505747 10.285977,0.501149425 C10.337931,0.564137931 10.3793103,0.659310345 10.4450575,0.68183908 C10.5613793,0.72183908 10.6822989,0.829885057 10.8229885,0.689195402 C10.8790805,0.633103448 11.0151724,0.607356322 11.0937931,0.633103448 C11.2882759,0.697011494 11.4721839,0.795402299 11.6570115,0.886896552 C11.8050575,0.96045977 11.9673563,1.0137931 11.8887356,1.25793103 C11.8717241,1.31034483 12.0574713,1.44275862 12.165977,1.51356322 C12.2105747,1.54252874 12.2974713,1.50344828 12.3655172,1.50022989 C12.4593103,1.49563218 12.5751724,1.46022989 12.6432184,1.5016092 C12.8188506,1.60781609 12.9737931,1.74850575 13.1356322,1.87632184 C13.2689655,1.9816092 13.4032184,2.07126437 13.2896552,2.29149425 C13.2616092,2.3462069 13.3981609,2.50436782 13.4841379,2.59034483 C13.5273563,2.63356322 13.6432184,2.6537931 13.6965517,2.62666667 C13.8216092,2.56229885 13.8974713,2.59954023 13.9733333,2.69333333 C14.1029885,2.85425287 14.2358621,3.01241379 14.3650575,3.17333333 C14.4703448,3.30436782 14.5931034,3.42206897 14.422069,3.60873563 C14.3866667,3.64735632 14.4744828,3.82574713 14.5374713,3.91816092 C14.5788506,3.9783908 14.6772414,3.99954023 14.7512644,4.03632184 C14.8344828,4.07770115 14.9531034,4.09517241 14.9963218,4.16183908 C15.108046,4.3337931 15.1875862,4.52643678 15.2777011,4.71172414 C15.3517241,4.86344828 15.4404598,5.00367816 15.234023,5.14850575 C15.188046,5.18068966 15.2422989,5.38574713 15.2832184,5.49931034 C15.3048276,5.55908046 15.3977011,5.63172414 15.457931,5.6308046 C15.6096552,5.62850575 15.6583908,5.70206897 15.6855172,5.8308046 C15.725977,6.02528736 15.7747126,6.21793103 15.823908,6.41011494 C15.8671264,6.5783908 15.9135632,6.72689655 15.6891954,6.82988506 C15.6326437,6.85609195 15.64,7.06344828 15.6537931,7.18390805 C15.6611494,7.24643678 15.7402299,7.3416092 15.7972414,7.34942529 C15.9452874,7.36965517 15.9701149,7.46114943 15.971954,7.57333333 C15.9765517,7.82528736 15.9843678,8.07862069 15.9678161,8.32965517 C15.9632184,8.39862069 15.8873563,8.50666667 15.8271264,8.52 C15.6137931,8.56689655 15.6758621,8.74344828 15.6390805,8.86896552 C15.605977,8.98344828 15.6386207,9.06804598 15.7691954,9.12045977 C15.8197701,9.14068966 15.8694253,9.25747126 15.8588506,9.32 C15.8142529,9.5908046 15.7535632,9.85977011 15.6822989,10.1250575 C15.6675862,10.1797701 15.5802299,10.2547126 15.5291954,10.2528736 C15.382069,10.2464368 15.3190805,10.3094253 15.2928736,10.4418391 C15.2671264,10.571954 15.136092,10.7025287 15.3296552,10.8234483 C15.3728736,10.8505747 15.3926437,10.9806897 15.3682759,11.0404598 C15.2666667,11.2873563 15.1512644,11.5296552 15.023908,11.7636782 C14.9931034,11.8202299 14.8813793,11.8850575 14.8303448,11.8689655 C14.6211494,11.8041379 14.5866667,11.9696552 14.5062069,12.0804598 C14.4308046,12.183908 14.4041379,12.2744828 14.5135632,12.3834483 C14.5485057,12.417931 14.5475862,12.537931 14.5149425,12.5834483 C14.3494253,12.8124138 14.1728736,13.0344828 13.9871264,13.2473563 C13.9503448,13.2896552 13.8321839,13.3181609 13.7935632,13.2914943 C13.645977,13.1903448 13.5682759,13.2822989 13.4822989,13.3728736 C13.3903448,13.4694253 13.2616092,13.5443678 13.3682759,13.7209195 C13.3958621,13.7668966 13.3462069,13.8970115 13.2933333,13.9475862 C13.1333333,14.1002299 12.9549425,14.234023 12.782069,14.3733333 C12.6652874,14.4675862 12.5613793,14.5443678 12.3990805,14.4137931 C12.3498851,14.3737931 12.1797701,14.4528736 12.0855172,14.5103448 C12.0225287,14.5489655 11.9485057,14.6570115 11.9618391,14.7149425 C11.9986207,14.8749425 11.9255172,14.9411494 11.8036782,14.9995402 C11.5898851,15.1011494 11.3774713,15.205977 11.1655172,15.3112644 C11.0583908,15.3641379 10.9797701,15.3655172 10.8845977,15.2625287 C10.8349425,15.2087356 10.6993103,15.2018391 10.6137931,15.222069 C10.4993103,15.2491954 10.3314943,15.2588506 10.3544828,15.4482759 C10.371954,15.5935632 10.2855172,15.6390805 10.1742529,15.6657471 C9.9291954,15.7245977 9.6845977,15.7894253 9.43586207,15.8294253 C9.36689655,15.8404598 9.23908046,15.7912644 9.21747126,15.737931 C9.12643678,15.5117241 8.95494253,15.6266667 8.82390805,15.6390805 C8.75632184,15.6455172 8.70068966,15.7512644 8.63494253,15.8064368 C8.57195402,15.8588506 8.50804598,15.9337931 8.4354023,15.9457471 C8.3016092,15.9682759 8.16091954,15.9521839 8.02298851,15.9521839 C8.02252874,15.9512644 8.02252874,15.9517241 8.02252874,15.9521839 Z"></path>
        <circle data-paper-data="{&quot;skipFill&quot;:true}" fill="white" cx="8" cy="8" r="3.688"></circle>
        <circle cx="8" cy="8" r="1.313"></circle>
      </svg>