<svg width="2em" height="2em" viewBox="0 0 16 16" fill="rgb(208, 0, 0)" xmlns="http://www.w3.org/2000/svg">
        <circle cx="8" cy="8" r="8"></circle>
        <path data-paper-data="{&quot;skipFill&quot;:true}" fill="white" d="M7.62109375,10.9375 C8.11328125,10.9348958 8.55924479,10.8170573 8.95898438,10.5839844 C9.35872396,10.3509115 9.66861979,10.0279948 9.88867188,9.61523438 C10.108724,9.20247396 10.21875,8.73567708 10.21875,8.21484375 L10.21875,8.21484375 L10.21875,7.953125 C10.2161458,7.4375 10.1022135,6.97200521 9.87695312,6.55664062 C9.65169271,6.14127604 9.33854167,5.81966146 8.9375,5.59179688 C8.53645833,5.36393229 8.08463542,5.25 7.58203125,5.25 L7.58203125,5.25 L5.75,5.25 L5.75,10.9375 L7.62109375,10.9375 Z M7.59765625,9.8828125 L7.12109375,9.8828125 L7.12109375,6.30859375 L7.58203125,6.30859375 C7.98567708,6.30859375 8.29296875,6.44791667 8.50390625,6.7265625 C8.71484375,7.00520833 8.8203125,7.41927083 8.8203125,7.96875 L8.8203125,7.96875 L8.8203125,8.21484375 C8.8203125,8.76692708 8.71484375,9.18294271 8.50390625,9.46289062 C8.29296875,9.74283854 7.99088542,9.8828125 7.59765625,9.8828125 L7.59765625,9.8828125 Z"></path>
      </svg>