<svg xmlns="http://www.w3.org/2000/svg" viewBox="0 0 1554.15 780.15"><g data-name="Border"><path d="M1550.525 576.525c0 110-90 200-200 200h-1146.9c-110 0-200-90-200-200v-372.9c0-110 90-200 200-200h1146.9c110 0 200 90 200 200v372.9Z" style="fill:#fff;stroke:#80091f;stroke-miterlimit:10;stroke-width:.25px"></path><path d="M1350.525 780.025h-1146.9c-54.136 0-105.178-21.229-143.725-59.775C21.354 681.703.125 630.661.125 576.525v-372.9C.125 149.489 21.354 98.447 59.9 59.9S149.489.125 203.625.125h1146.9c54.136 0 105.178 21.229 143.725 59.775s59.775 89.589 59.775 143.725v372.9c0 54.136-21.229 105.178-59.775 143.725s-89.589 59.775-143.725 59.775Zm-1146.9-772.9c-108.351 0-196.5 88.149-196.5 196.5v372.9c0 108.351 88.149 196.5 196.5 196.5h1146.9c108.351 0 196.5-88.149 196.5-196.5v-372.9c0-108.351-88.149-196.5-196.5-196.5h-1146.9Z" style="fill:#253e56;stroke:#80091f;stroke-miterlimit:10;stroke-width:.25px"></path></g><g data-name="Layer 1" style="opacity:.4"><circle cx="781.225" cy="389.425" r="118.4" style="fill:none;stroke:#80091f;stroke-miterlimit:10;stroke-width:4px"></circle><path style="fill:#80091f" d="M777.225 507.478h10.8v265.668h-10.8zM777.225 6.814h10.8v263.815h-10.8z"></path><circle cx="599.825" cy="200.725" r="9.3" style="fill:#80091f"></circle><circle cx="962.125" cy="200.725" r="9.3" style="fill:#80091f"></circle><circle cx="600.025" cy="583.925" r="9.3" style="fill:#80091f"></circle><circle cx="962.325" cy="583.925" r="9.3" style="fill:#80091f"></circle><path d="M1316.925 332.725c0-5.2-.1-10.5.1-15.7 0-.7 1-1.3 1.5-2 0 5.2.1 10.5-.1 15.7 0 .7-1 1.3-1.5 2ZM1268.625 316.625h1.6c-.2 5.3-.3 10.5-.6 15.8h-.5c-.2-5.3-.4-10.5-.5-15.8Z" style="fill:#b79197"></path><circle cx="1294.825" cy="198.825" r="118.4" style="fill:none;stroke:#80091f;stroke-miterlimit:10;stroke-width:4px"></circle><path style="fill:#80091f" d="M1314.925 58.125h3.7v24.7h-3.7zM1268.325 58.125h3.7v24.7h-3.7zM1314.925 316.625h3.7v24.7h-3.7zM1268.325 316.625h3.7v24.7h-3.7zM1337.325 192.625h-23.4v-24.01h-3.7v27.71H1337.325v-3.7zM1315.025 231.859v-22.634h22.411v-3.6h-26.211v3.6h.1v22.634h3.7zM1274.525 168.615v24.01h-22.298v3.7h26.098v-3.7h-.1v-24.01h-3.7zM1252.225 209.525h23.4v22.334h3.7v-26.134h-3.7v.1h-23.4v3.7z"></path><circle cx="1295.825" cy="201.725" r="8.3" style="fill:#80091f"></circle><path d="M1316.925 713.125c0-5.2-.1-10.5.1-15.7 0-.7 1-1.3 1.5-2 0 5.2.1 10.5-.1 15.7 0 .7-1 1.4-1.5 2ZM1268.625 697.025h1.6c-.2 5.3-.3 10.5-.6 15.8h-.5c-.2-5.2-.4-10.5-.5-15.8Z" style="fill:#80091f"></path><circle cx="1294.825" cy="579.325" r="118.4" style="fill:none;stroke:#80091f;stroke-miterlimit:10;stroke-width:4px"></circle><path style="fill:#80091f" d="M1314.925 438.525h3.7v24.7h-3.7zM1268.325 438.525h3.7v24.7h-3.7zM1314.925 697.025h3.7v24.7h-3.7zM1268.325 697.025h3.7v24.7h-3.7zM1337.325 573.025h-23.4v-23.276h-3.7v26.976H1337.325v-3.7zM1315.025 613.025v-23.3h22.411v-3.7h-26.211v3.7h.1v23.3h3.7zM1274.525 549.725v23.4h-22.298v3.6h26.098v-3.6h-.1v-23.4h-3.7zM1252.225 589.925h23.4v23.209h3.7v-26.909H1252.225v3.7z"></path><circle cx="1295.825" cy="582.125" r="8.3" style="fill:#80091f"></circle><g><path d="M294.125 331.825c0-5.2-.1-10.5.1-15.7 0-.7 1-1.3 1.5-2 0 5.2.1 10.5-.1 15.7 0 .7-1 1.3-1.5 2ZM245.825 315.725h1.6c-.2 5.3-.4 10.5-.5 15.8h-.5c-.3-5.2-.5-10.5-.6-15.8Z" style="fill:#80091f"></path><circle cx="272.025" cy="197.925" r="118.4" style="fill:none;stroke:#80091f;stroke-miterlimit:10;stroke-width:4px"></circle><path style="fill:#80091f" d="M292.125 57.225h3.7v24.7h-3.7zM245.525 57.225h3.7v24.7h-3.7zM292.125 315.725h3.7v24.7h-3.7zM245.525 315.725h3.7v24.7h-3.7zM314.525 191.725h-23.4v-23.11h-3.7v26.81H314.525v-3.7zM292.225 231.725v-23.4h22.082v-3.6h-25.882v3.6h.1v23.4h3.7zM251.725 168.425v23.3h-22.149v3.7h25.949v-3.7h-.1v-23.3h-3.7zM229.425 208.625h23.4v23.234h3.7v-27.034h-3.7v.1h-23.4v3.7z"></path><circle cx="273.025" cy="200.825" r="8.3" style="fill:#80091f"></circle></g><g><path d="M294.125 714.225c0-5.2-.1-10.5.1-15.7 0-.7 1-1.3 1.5-2 0 5.2.1 10.5-.1 15.7 0 .7-1 1.4-1.5 2ZM245.825 698.125h1.6c-.2 5.3-.4 10.5-.5 15.8h-.5c-.3-5.2-.5-10.5-.6-15.8Z" style="fill:#80091f"></path><circle cx="272.025" cy="580.425" r="118.4" style="fill:none;stroke:#80091f;stroke-miterlimit:10;stroke-width:4px"></circle><path style="fill:#80091f" d="M292.125 439.625h3.7v24.7h-3.7zM245.525 439.625h3.7v24.7h-3.7zM292.125 698.125h3.7v24.7h-3.7zM245.525 698.125h3.7v24.7h-3.7zM314.525 574.125h-23.4v-23.376h-3.7v27.076H314.525v-3.7zM292.225 614.125v-23.3h22.082v-3.7h-25.882v3.7h.1v23.3h3.7zM251.725 550.825v23.4h-22.149v3.6h25.949v-3.6h-.1v-23.4h-3.7zM229.425 591.025h23.4v23.109h3.7v-26.809H229.425v3.7z"></path><circle cx="273.025" cy="583.225" r="8.3" style="fill:#80091f"></circle></g><ellipse cx="902.825" cy="429.325" rx=".7" ry=".2" style="fill:#7d8294"></ellipse><path d="M113.225 438.025h2.1c26.4 0 47.8-21.4 47.8-47.8s-21.4-47.8-47.8-47.8h-2.1" style="fill:#a4dff4"></path><path d="M115.325 439.625h-2.1v-3h2.1c25.53 0 46.3-20.77 46.3-46.3s-20.77-46.3-46.3-46.3h-2.1v-3h2.1c27.184 0 49.3 22.116 49.3 49.3s-22.116 49.3-49.3 49.3Z" style="fill:#80091f"></path><path style="fill:#80091f" d="M111.725 27.783h3v724.122h-3z"></path><path d="M1450.625 343.325h-2.1c-26.4 0-47.8 21.4-47.8 47.8s21.4 47.8 47.8 47.8h2.1" style="fill:#a4dff4"></path><path d="M1450.625 440.325h-2.101c-27.184 0-49.3-22.116-49.3-49.3s22.116-49.3 49.3-49.3h2.101v3h-2.101c-25.53 0-46.3 20.77-46.3 46.3s20.77 46.3 46.3 46.3h2.101v3Z" style="fill:#80091f"></path><path style="fill:#80091f" d="M1449.125 33.37h3v712.947h-3z"></path><path style="fill:#253e56" d="M550.525 6.814h9.2v766.332h-9.2zM1007.525 6.814h9.2v766.332h-9.2z"></path></g></svg>