<svg xmlns="http://www.w3.org/2000/svg" viewBox="0 0 1000 500"><path style="fill:#fff" d="M0 0h1000v500H0z" data-name="Layer 2"></path><g data-name="Layer 1"><path transform="rotate(-25.281 678.332 371.471)" style="fill:#801421;opacity:.7" d="M677.335 278.359h2.021v186.233h-2.021z"></path><path d="M437.597 286.565v-66.969s18.256-23.582 61.041-23.582c0 0 35.576-2.527 61.697 23.582v66.969H437.597Z" style="fill:#d8f0f7;opacity:.7"></path><path style="fill:#801421;opacity:.7" d="M4 286.483h992v1.597H4z"></path><path transform="rotate(-64.719 322.349 371.477)" style="fill:#801421;opacity:.7" d="M229.229 370.466h186.233v2.021H229.229z"></path><path d="M592.645 287.943h-2.021c0-50.54-41.118-91.658-91.658-91.658s-91.658 41.118-91.658 91.658h-2.021c0-51.655 42.024-93.679 93.679-93.679s93.679 42.024 93.679 93.679Z" style="fill:#801421;opacity:.7"></path><path style="fill:#801421;opacity:.7" d="M436.587 218.507h2.021v68.058h-2.021zM559.325 218.508h2.021v68.058h-2.021z"></path><path style="fill:#253e56" d="M4 450.677h992v8.508H4z"></path><path style="fill:#bcbec0" d="M498.971 288.943h.337v48.99h-.337z"></path><path style="fill:#bcbec0" d="M452.317 326.531h95.13v.337h-95.13zM451.233 302.813h97.579v.337h-97.579zM450.844 306.183h97.968v.337h-97.968zM450.464 319.29h98.835v.337h-98.835zM450.464 309.429h98.706v.337h-98.706zM451.233 299.255h97.323v.337h-97.323zM455.826 333.147h88.302v.337h-88.302zM449.891 316.295h100.021v.337H449.891zM451.233 322.973h97.323v.337h-97.323zM449.777 312.939h100.021v.337H449.777zM453.805 329.901h92.323v.337h-92.323zM453.805 295.573h92.323v.337h-92.323zM454.365 292.577h92.323v.337h-92.323z"></path><path style="fill:#ed2024" d="M499.139 312.434h.125v1.347h-.125z"></path><path style="fill:#bcbec0" d="M514.949 288.612h.337v48.99h-.337zM531.052 288.281h.337v48.99h-.337zM518.944 288.943h.337v48.99h-.337zM522.938 288.612h.337v48.99h-.337zM546.52 292.745h.337v36.325h-.337zM526.808 288.281h.337v48.99h-.337zM535.171 288.281h.337v48.99h-.337zM539.041 288.281h.337v48.99h-.337zM543.036 288.281h.337v48.99h-.337zM503.09 288.612h.337v48.99h-.337zM507.085 288.612h.337v48.99h-.337zM511.329 288.612h.337v48.99h-.337zM495.275 288.612h.337v48.99h-.337zM491.78 288.612h.337v48.99h-.337zM487.562 288.612h.337v48.99h-.337zM483.942 288.281h.337v48.99h-.337zM480.572 288.281h.337v48.99h-.337zM476.876 288.281h.337v48.99h-.337zM472.882 288.281h.337v48.99h-.337zM468.838 288.612h.337v48.99h-.337zM465.017 288.281h.337v48.99h-.337zM461.397 288.281h.337v48.99h-.337zM457.777 288.281h.337v48.99h-.337zM454.197 288.785h.337v42.908h-.337z"></path><path d="M539.238 313.781h-78.389l-.176-.127c-.333-.24-8.153-6.107-6.832-25.419l1.344.092c-1.162 16.981 5.048 23.171 6.122 24.107h77.369c6.976-7.298 5.804-23.933 5.791-24.102l1.343-.102c.055.72 1.254 17.725-6.374 25.353l-.197.197Z" style="fill:#ed2024"></path><path style="fill:#ed2024" d="M498.466 313.108h1.347v24.826h-1.347z"></path><path d="M541.249 339.281h-81.76l-.361-.275c-.206-.157-5.071-3.926-8.214-12.196-2.859-7.523-4.774-20.397 2.341-39.009l.331-.866h92.426l.357.797c.137.305 13.441 30.743-4.718 51.099l-.401.451Zm-80.815-2.694h79.6c14.852-17.253 6.08-42.201 4.202-46.958h-88.792c-6.391 17.246-4.676 29.105-2.078 36.054 2.402 6.423 5.976 9.938 7.066 10.904Z" style="fill:#ed2024"></path></g></svg>