<svg xmlns="http://www.w3.org/2000/svg" viewBox="0 0 1555.904 461.597"><g data-name="Layer 2"><path d="M4.5 386.972V195.736C4.5 90.556 94.5 4.5 204.5 4.5h1146.905c110 0 200 86.056 200 191.236v191.236" style="fill:#fff"></path><path d="M1555.904 386.972h-9V195.736C1546.904 92.77 1459.203 9 1351.404 9H204.5C96.701 9 9 92.77 9 195.736v191.236H0V195.736c0-52.11 21.358-101.23 60.14-138.313C98.867 20.393 150.135 0 204.5 0h1146.904c54.365 0 105.633 20.393 144.359 57.423 38.782 37.083 60.141 86.203 60.141 138.313v191.236Z" style="fill:#253e56"></path></g><g data-name="Layer 1" style="opacity:.4"><path d="M562.091 8.666v378.306h-9.668V8.666h9.668Z" style="fill:#253e56"></path><path d="M898.921 387.014c-1.762-63.722-53.105-113.638-116.888-113.638s-115.125 49.917-116.886 113.638l-2.999-.082c.866-31.322 13.721-60.633 36.198-82.532 22.519-21.94 52.24-34.024 83.687-34.024s61.169 12.083 83.688 34.024c22.477 21.899 35.332 51.21 36.197 82.532l-2.998.082Z" style="fill:#801421"></path><path d="M1013.943 8.666v378.306h-9.668V8.666h9.668Z" style="fill:#253e56"></path><path style="fill:#801421" d="M778.09 8.666h10.842v342.372H778.09z"></path><circle cx="598.628" cy="201.612" r="9.278" style="fill:#801421"></circle><circle cx="960.971" cy="201.612" r="9.278" style="fill:#801421"></circle><path d="M1317.772 333.609c0-5.234-.058-10.47.071-15.701.017-.68 1.003-1.337 1.54-2.004 0 5.234.058 10.47-.071 15.701-.017.68-1.003 1.337-1.54 2.004Z" style="fill:#f16462"></path><path d="M1269.434 317.513h1.611a3624.5 3624.5 0 0 1-.545 15.812c0 .007-.521.007-.521 0-.198-5.27-.371-10.541-.545-15.812Z" style="fill:#ed2224"></path><path d="M1295.675 319.667c-66.131 0-119.933-53.801-119.933-119.932s53.802-119.932 119.933-119.932 119.933 53.801 119.933 119.932-53.802 119.932-119.933 119.932Zm0-236.864c-64.477 0-116.933 52.456-116.933 116.932s52.456 116.932 116.933 116.932 116.933-52.456 116.933-116.932-52.456-116.932-116.933-116.932Z" style="fill:#801421"></path><path style="fill:#801421" d="M1315.724 58.984h3.673v24.697h-3.673zM1269.209 58.984h3.673v24.697h-3.673zM1315.724 317.513h3.673v24.697h-3.673zM1269.209 317.513h3.673v24.697h-3.673zM1338.152 193.491h-23.376v-24.014h-3.673v27.738h3.673v-.051h23.376v-3.673zM1315.827 232.594v-22.453h22.325v-3.673h-26.049v3.673h.051v22.453h3.673zM1275.409 169.477v24.065h-22.336v3.673h26.06v-3.673h-.051v-24.065h-3.673zM1253.084 210.368h23.376v22.226h3.673v-25.95h-3.673v.051h-23.376v3.673z"></path><circle cx="1296.675" cy="202.612" r="8.34" style="fill:#801421"></circle><path d="M294.971 332.706c0-5.234-.058-10.47.071-15.701.017-.68 1.003-1.337 1.54-2.004 0 5.234.058 10.47-.071 15.701-.017.68-1.003 1.337-1.54 2.004Z" style="fill:#f16462"></path><path d="M246.633 316.61h1.611a3624.5 3624.5 0 0 1-.545 15.812c0 .007-.521.007-.521 0-.198-5.27-.371-10.541-.545-15.812Z" style="fill:#ed2224"></path><path d="M272.874 318.765c-66.131 0-119.933-53.802-119.933-119.933S206.743 78.9 272.874 78.9s119.932 53.801 119.932 119.932-53.801 119.933-119.932 119.933Zm0-236.865c-64.477 0-116.933 52.456-116.933 116.932s52.456 116.933 116.933 116.933 116.932-52.456 116.932-116.933S337.35 81.9 272.874 81.9Z" style="fill:#801421"></path><path style="fill:#801421" d="M292.922 58.081h3.673v24.697h-3.673zM246.408 58.081h3.673v24.697h-3.673zM292.922 316.61h3.673v24.697h-3.673zM246.408 316.61h3.673v24.697h-3.673zM315.35 192.588h-23.375v-23.111h-3.673v26.835h3.673v-.051h23.375v-3.673zM293.026 232.614v-23.376h22.399v-3.673h-26.123v3.673h.051v23.376h3.673zM252.608 169.263v23.376h-22.486v3.673h26.209v-3.673h-.051v-23.376h-3.672zM230.283 209.465h23.376v23.129h3.672v-26.853h-3.672v.051h-23.376v3.673z"></path><circle cx="273.873" cy="201.709" r="8.34" style="fill:#801421"></circle><path d="M904.17 430.381h-.997v-.332h.997v.332Z" style="fill:#7d8294"></path><path d="M163.926 387.17c0-26.384-21.389-47.773-47.773-47.773-.707 0-1.41.015-2.11.046v47.727h49.882" style="fill:#27aae1"></path><path d="M165.426 387.17h-3c0-25.516-20.758-46.273-46.273-46.273-.685 0-1.367.016-2.044.045l-.13-2.998a50.614 50.614 0 0 1 2.174-.047c27.169 0 49.273 22.104 49.273 49.273Z" style="fill:#801421"></path><path style="fill:#801421" d="M112.544 30.855h3V387.17h-3z"></path><path d="M1402.637 387.232c0-26.384 21.389-47.773 47.773-47.773.707 0 1.41.015 2.11.046v47.727h-49.882" style="fill:#27aae1"></path><path d="M1404.137 387.232h-3c0-27.17 22.104-49.273 49.273-49.273.728 0 1.453.016 2.174.047l-.129 2.998a47.855 47.855 0 0 0-2.045-.045c-25.516 0-46.273 20.758-46.273 46.273Z" style="fill:#801421"></path><path style="fill:#801421" d="M1451.02 30.917h3v356.315h-3z"></path><circle cx="782.034" cy="380.156" r="9.278" style="fill:#801421"></circle></g></svg>