<svg xmlns="http://www.w3.org/2000/svg" viewBox="0 0 799.432 781.917"><g data-name="Layer 2"><path d="M788.932 777.417H204.5c-110 0-200-90-200-200V204.5c0-110 90-200 200-200h584.432" style="fill:#fff"></path><path d="M788.932 781.917H204.5c-54.403 0-105.697-21.333-144.432-60.068C21.333 683.113 0 631.82 0 577.417V204.5C0 150.097 21.333 98.804 60.068 60.068 98.803 21.333 150.097 0 204.5 0h584.432v9H204.5C96.701 9 9 96.701 9 204.5v372.917c0 107.799 87.701 195.5 195.5 195.5h584.432v9Z" style="fill:#253e56"></path></g><g data-name="Layer 1" style="opacity:.4"><path d="M181.834 777.417v-1.61c1.586.613 4.078-1.492 4.834 1.61h-4.834Z" style="fill:#c5c4c4"></path><path d="M562.091 8.666v764.229h-9.668V8.666h9.668Z" style="fill:#253e56"></path><path d="M782.034 510.241c-66.131 0-119.933-53.802-119.933-119.933s53.802-119.932 119.933-119.932v3c-64.477 0-116.933 52.456-116.933 116.932s52.456 116.933 116.933 116.933v3Z" style="fill:#801421"></path><path style="fill:#801421" d="M778.09 421.038h10.842v351.839H778.09zM788.932 8.666v342.372H778.09V8.666h10.842"></path><circle cx="598.628" cy="201.612" r="9.278" style="fill:#801421"></circle><circle cx="600.862" cy="580.762" r="9.278" style="fill:#801421"></circle><path d="M294.971 332.706c0-5.234-.058-10.47.071-15.701.017-.68 1.003-1.337 1.54-2.004 0 5.234.058 10.47-.071 15.701-.017.68-1.003 1.337-1.54 2.004Z" style="fill:#f16462"></path><path d="M246.633 316.61h1.611a3624.5 3624.5 0 0 1-.545 15.812c0 .007-.521.007-.521 0-.198-5.27-.371-10.541-.545-15.812Z" style="fill:#ed2224"></path><path d="M272.874 318.765c-66.131 0-119.932-53.802-119.932-119.933S206.743 78.9 272.874 78.9s119.933 53.801 119.933 119.932-53.802 119.933-119.933 119.933Zm0-236.865c-64.477 0-116.932 52.456-116.932 116.932 0 64.477 52.456 116.933 116.932 116.933 64.477 0 116.933-52.456 116.933-116.933S337.351 81.9 272.874 81.9Z" style="fill:#801421"></path><path style="fill:#801421" d="M292.923 58.081h3.673v24.697h-3.673zM246.408 58.081h3.673v24.697h-3.673zM292.923 315.61h3.673v24.697h-3.673zM246.408 315.61h3.673v24.697h-3.673zM313.918 192.588h-21.943v-20.973h-3.673v24.697h3.673v-.051h21.943v-3.673zM293.026 230.4v-21.162h20.973v-3.673h-24.697v3.673h.051V230.4h3.673zM252.608 171.836v20.803h-20.973v3.673h24.696v-3.673h-.051v-20.803h-3.672zM231.771 209.465h21.888v20.973h3.672v-24.697h-3.672v.051h-21.888v3.673z"></path><circle cx="273.874" cy="201.709" r="8.34" style="fill:#801421"></circle><path d="M294.971 713.13c0-5.234-.058-10.47.071-15.701.017-.68 1.003-1.337 1.54-2.004 0 5.234.058 10.47-.071 15.701-.017.68-1.003 1.337-1.54 2.004Z" style="fill:#f16462"></path><path d="M246.633 697.035h1.611a3624.5 3624.5 0 0 1-.545 15.812c0 .007-.521.007-.521 0-.198-5.27-.371-10.541-.545-15.812Z" style="fill:#ed2224"></path><path d="M272.874 699.189c-66.131 0-119.932-53.802-119.932-119.933s53.801-119.932 119.932-119.932 119.933 53.801 119.933 119.932-53.802 119.933-119.933 119.933Zm0-236.864c-64.477 0-116.932 52.455-116.932 116.932S208.398 696.19 272.874 696.19s116.933-52.456 116.933-116.933-52.456-116.932-116.933-116.932Z" style="fill:#801421"></path><path style="fill:#801421" d="M292.923 438.505h3.673v24.697h-3.673zM246.408 438.505h3.673v24.697h-3.673zM292.923 696.035h3.673v24.697h-3.673zM246.408 696.035h3.673v24.697h-3.673zM314.289 573.012h-22.314v-20.973h-3.673v24.697h3.673v-.051h22.314v-3.673zM293.026 611.018v-21.356h20.973v-3.672h-24.697v3.672h.051v21.356h3.673zM252.608 551.806v21.257h-20.973v3.673h24.696v-3.673h-.051v-21.257h-3.672zM231.771 589.889h21.888v20.973h3.672v-24.697h-3.672v.051h-21.888v3.673z"></path><circle cx="273.874" cy="582.134" r="8.34" style="fill:#801421"></circle><path d="M112.493 436.312c.699.03 1.401.046 2.107.046 26.384 0 47.773-21.389 47.773-47.773 0-26.384-21.389-47.773-47.773-47.773-.707 0-1.41.015-2.11.046" style="fill:#27aae1"></path><path d="M114.6 437.857c-.728 0-1.453-.016-2.173-.047l.132-2.997c.677.03 1.357.044 2.042.044 25.515 0 46.273-20.758 46.273-46.273 0-25.515-20.758-46.273-46.273-46.273-.685 0-1.366.015-2.043.044l-.132-2.997a49.053 49.053 0 0 1 2.175-.047c27.169 0 49.273 22.104 49.273 49.273 0 27.169-22.104 49.273-49.273 49.273Z" style="fill:#801421"></path><path style="fill:#801421" d="M110.991 32.27h3v720.141h-3z"></path><circle cx="782.034" cy="388.038" r="9.278" style="fill:#801421"></circle></g></svg>