<svg xmlns="http://www.w3.org/2000/svg" viewBox="0 0 799.432 781.917"><g data-name="Layer 2"><path d="M10.5 4.5h584.432c110 0 200 90 200 200v372.917c0 110-90 200-200 200H10.5" style="fill:#fff"></path><path d="M10.5 0h584.432c54.403 0 105.697 21.333 144.432 60.068 38.735 38.735 60.068 90.028 60.068 144.432v372.917c0 54.403-21.333 105.696-60.068 144.432-38.735 38.735-90.029 60.068-144.432 60.068H10.5v-9h584.432c107.799 0 195.5-87.701 195.5-195.5V204.5c0-107.799-87.701-195.5-195.5-195.5H10.5V0Z" style="fill:#253e56"></path></g><g data-name="Layer 1" style="opacity:.4"><path d="M617.598 4.5v1.61c-1.586-.613-4.078 1.492-4.834-1.61h4.834Z" style="fill:#c5c4c4"></path><path d="M237.341 773.25V9.021h9.668V773.25h-9.668Z" style="fill:#253e56"></path><path d="M17.398 271.676c66.131 0 119.933 53.802 119.933 119.933S83.529 511.541 17.398 511.541v-3c64.477 0 116.933-52.456 116.933-116.932S81.875 274.676 17.398 274.676v-3Z" style="fill:#801421"></path><path transform="rotate(-180 15.92 184.96)" style="fill:#801421" d="M10.5 9.04h10.842v351.839H10.5z"></path><path style="fill:#801421" d="M10.5 773.25V430.879h10.841V773.25H10.5"></path><circle cx="200.804" cy="580.304" r="9.278" style="fill:#801421"></circle><circle cx="198.569" cy="201.155" r="9.278" style="fill:#801421"></circle><path d="M504.461 449.21c0 5.234.058 10.47-.071 15.701-.017.68-1.003 1.337-1.54 2.004 0-5.234-.058-10.47.071-15.701.017-.68 1.003-1.337 1.54-2.004Z" style="fill:#f16462"></path><path d="M552.799 465.306h-1.611a3624.5 3624.5 0 0 1 .545-15.812c0-.007.521-.007.521 0 .198 5.27.371 10.541.545 15.812Z" style="fill:#ed2224"></path><path d="M526.558 463.151c66.131 0 119.932 53.802 119.932 119.933s-53.801 119.932-119.932 119.932-119.933-53.801-119.933-119.932 53.802-119.933 119.933-119.933Zm0 236.865c64.477 0 116.932-52.456 116.932-116.932s-52.456-116.933-116.932-116.933c-64.477 0-116.933 52.456-116.933 116.933s52.456 116.932 116.933 116.932Z" style="fill:#801421"></path><path transform="rotate(-180 504.673 711.487)" style="fill:#801421" d="M502.837 699.139h3.673v24.697h-3.673z"></path><path transform="rotate(-180 551.188 711.487)" style="fill:#801421" d="M549.351 699.139h3.673v24.697h-3.673z"></path><path transform="rotate(-180 504.673 453.957)" style="fill:#801421" d="M502.837 441.609h3.673v24.697h-3.673z"></path><path transform="rotate(-180 551.188 453.957)" style="fill:#801421" d="M549.351 441.609h3.673v24.697h-3.673z"></path><path style="fill:#801421" d="M485.514 589.328h21.943v20.973h3.673v-24.696h-3.673v.051h-21.943v3.672zM506.406 551.516v21.162h-20.973v3.673h24.697v-3.673h-.051v-21.162h-3.673zM546.824 610.08v-20.802h20.973v-3.673H543.1v3.673h.051v20.802h3.673zM567.661 572.452h-21.888v-20.973H542.1v24.696h3.673v-.051h21.888v-3.672z"></path><circle cx="525.558" cy="580.207" r="8.34" style="fill:#801421"></circle><path d="M504.461 68.786c0 5.234.058 10.47-.071 15.701-.017.68-1.003 1.337-1.54 2.004 0-5.234-.058-10.47.071-15.701.017-.68 1.003-1.337 1.54-2.004Z" style="fill:#f16462"></path><path d="M552.799 84.882h-1.611a3624.5 3624.5 0 0 1 .545-15.812c0-.007.521-.007.521 0 .198 5.27.371 10.541.545 15.812Z" style="fill:#ed2224"></path><path d="M526.558 82.728c66.131 0 119.932 53.802 119.932 119.933s-53.801 119.932-119.932 119.932-119.933-53.801-119.933-119.932S460.427 82.728 526.558 82.728Zm0 236.864c64.477 0 116.932-52.455 116.932-116.932S591.034 85.727 526.558 85.727c-64.477 0-116.933 52.456-116.933 116.933s52.456 116.932 116.933 116.932Z" style="fill:#801421"></path><path transform="rotate(-180 504.673 331.063)" style="fill:#801421" d="M502.837 318.715h3.673v24.697h-3.673z"></path><path transform="rotate(-180 551.188 331.063)" style="fill:#801421" d="M549.351 318.715h3.673v24.697h-3.673z"></path><path transform="rotate(-180 504.673 73.533)" style="fill:#801421" d="M502.837 61.185h3.673v24.697h-3.673z"></path><path transform="rotate(-180 551.188 73.533)" style="fill:#801421" d="M549.351 61.185h3.673v24.697h-3.673z"></path><path style="fill:#801421" d="M485.143 208.904h22.314v20.973h3.673v-24.696h-3.673v.051h-22.314v3.672zM506.406 170.899v21.355h-20.973v3.673h24.697v-3.673h-.051v-21.355h-3.673zM546.824 230.111v-21.258h20.973v-3.672H543.1v3.672h.051v21.258h3.673zM567.661 192.028h-21.888v-20.974H542.1v24.697h3.673v-.051h21.888v-3.672z"></path><circle cx="525.558" cy="199.783" r="8.34" style="fill:#801421"></circle><path d="M686.939 345.605a49.118 49.118 0 0 0-2.107-.046c-26.384 0-47.773 21.389-47.773 47.773s21.389 47.773 47.773 47.773c.707 0 1.41-.015 2.11-.046" style="fill:#27aae1"></path><path d="M684.832 344.059c.728 0 1.453.016 2.173.047l-.132 2.997a46.103 46.103 0 0 0-2.042-.044c-25.515 0-46.273 20.758-46.273 46.273s20.758 46.273 46.273 46.273c.685 0 1.366-.015 2.043-.044l.132 2.997c-.721.032-1.446.047-2.175.047-27.169 0-49.273-22.104-49.273-49.273 0-27.169 22.104-49.273 49.273-49.273Z" style="fill:#801421"></path><path style="fill:#801421" d="M685.441 29.506h3v720.141h-3z"></path><circle cx="17.398" cy="393.879" r="9.278" style="fill:#801421"></circle></g></svg>