<svg xmlns="http://www.w3.org/2000/svg" viewBox="0 0 800 400">
      <g fill-rule="nonzero" fill="none">
        <path fill="#FFF" d="M112.352 20h575.732v360.305H112.352z"></path>
        <g opacity=".4" transform="translate(114.847 27.896)">
          <path d="M284.879 83.259c-49.825 0-90.216 40.391-90.216 90.216 0 49.825 40.391 90.216 90.216 90.216 49.825 0 90.216-40.391 90.216-90.216 0-49.825-40.391-90.216-90.216-90.216z" fill="#801421"></path>
          <path d="M284.879 87.259c47.616 0 86.216 38.6 86.216 86.216 0 47.616-38.6 86.216-86.216 86.216-47.616 0-86.216-38.6-86.216-86.216 0-47.616 38.6-86.216 86.216-86.216z" fill="#FFF"></path>
          <circle fill="#801421" cx="144.328" cy="310.093" r="6.912"></circle>
          <circle fill="#801421" cx="144.328" cy="40.194" r="6.912"></circle>
          <circle fill="#801421" cx="417.81" cy="308.425" r="6.912"></circle>
          <circle fill="#801421" cx="417.81" cy="38.525" r="6.912"></circle>
          <path fill="#801421" d="M268.886 166.53v11H.603v-11zM569.609 166.53v11H301.467v-11z"></path>
          <circle fill="#801421" cx="284.976" cy="172.03" r="6.912"></circle>
          <path fill="#253E56" d="M.603.73h569.006v7.203H.603zM.864 337.311H569.87v7.203H.864z"></path>
        </g>
        <path fill="#253E56" d="M691.428 20v360.305h-6.704V20zM115.704 20v360.305H109V20z"></path>
      </g>
    </svg>