<svg data-name="Layer 1" xmlns="http://www.w3.org/2000/svg" viewBox="0 0 793.29 465.54"><g data-name="Layer 2"><path d="M789.43 0H192.56S17.24 13.79 0 192.51v200.54l789.43.68V0Z" style="fill:#fff"></path><path d="M4.99 393.05V198.86c0-106.81 90-194.19 200-194.19h584.43" style="fill:#fff;stroke:#253e56;stroke-miterlimit:10;stroke-width:9px"></path></g><g data-name="Layer 1" style="opacity:.4"><path d="M664.1 393.05c0-66.83 53.02-121 118.43-121" style="fill:none;stroke:#801421;stroke-miterlimit:10;stroke-width:4px"></path><path style="fill:#801421" d="M789.43 8.84v342.38h-10.85V8.84h10.85"></path><circle cx="599.12" cy="201.79" r="9.28" style="fill:#801421"></circle><path d="M295.46 332.88c0-5.23-.06-10.47.07-15.7.02-.68 1-1.34 1.54-2 0 5.23.06 10.47-.07 15.7-.01.68-1 1.34-1.54 2Z" style="fill:#f16462"></path><path d="M247.13 316.79h1.61c-.17 5.27-.35 10.54-.55 15.81 0 .01-.52.01-.52 0-.2-5.27-.37-10.54-.54-15.81Z" style="fill:#ed2224"></path><circle cx="273.37" cy="199.01" r="118.43" style="fill:none;stroke:#801421;stroke-miterlimit:10;stroke-width:4px"></circle><path style="fill:#801421" d="M293.42 58.26h3.67v24.7h-3.67zM246.9 58.26h3.67v24.7h-3.67zM293.42 316.79h3.67v24.7h-3.67zM246.9 316.79h3.67v24.7h-3.67zM315.84 192.77h-23.37v-23.36h-3.67v27.08h3.67v-.05h23.37v-3.67zM293.52 232.79v-23.37h22.299v-3.68H289.8v3.68h.05v23.37h3.67zM253.1 169.44v23.38h-22.262v3.67h25.992v-3.67h-.06v-23.38h-3.67zM230.78 209.64h23.37v23.249h3.68V205.92h-3.68v.05h-23.37v3.67z"></path><circle cx="274.37" cy="201.89" r="8.34" style="fill:#801421"></circle><path d="M113.04 393.05V344.6s48.45-.47 48.45 48.45h-48.45Z" style="fill:#27aae1"></path><circle cx="784.01" cy="386.22" r="9.28" style="fill:#801421"></circle><path style="fill:none;stroke:#801421;stroke-miterlimit:10;stroke-width:3px" d="M113.04 28.88v364.17M113.04 344.6s48.45-2.14 48.45 48.45"></path><path style="fill:#253e56" d="M552.92 8.84h9.67v384.21h-9.67z"></path></g></svg>