<svg xmlns="http://www.w3.org/2000/svg" viewBox="0 0 562.487 466.241"><g data-name="Layer 2"><path d="M562.486 393.754V0H190.147S12.093 14.041 0 194.248v199.506h562.486Z" style="fill:#fff"></path><path d="M8.896 393.754h-8V199.566c0-52.745 21.295-102.47 59.963-140.015C99.495 22.038 150.648 1.378 204.896 1.378h357.591v8H204.896c-108.075 0-196 85.318-196 190.188v194.188Z" style="fill:#253e56"></path></g><g data-name="Layer 1" style="opacity:.4"><path d="M562.486 9.545v384.209h-9.668V9.545h9.668Z" style="fill:#253e56"></path><path d="M295.366 333.585c0-5.234-.058-10.47.071-15.701.017-.68 1.003-1.337 1.54-2.004 0 5.234.058 10.47-.071 15.701-.017.68-1.003 1.337-1.54 2.004Z" style="fill:#f16462"></path><path d="M247.028 317.489h1.611a3624.5 3624.5 0 0 1-.545 15.812c0 .007-.521.007-.521 0-.198-5.27-.371-10.541-.545-15.812Z" style="fill:#ed2224"></path><circle cx="273.269" cy="199.711" r="118.432" style="fill:none;stroke:#801421;stroke-miterlimit:10;stroke-width:4px"></circle><path style="fill:#801421" d="M293.318 58.959h3.673v24.697h-3.673zM246.803 58.959h3.673v24.697h-3.673zM293.318 317.489h3.673v24.697h-3.673zM246.803 317.489h3.673v24.697h-3.673zM315.746 193.467H292.37v-23.325h-3.673v27.048h3.673v-.051h23.376v-3.672zM293.421 233.492v-23.375h22.232v-3.673h-25.956v3.673h.051v23.375h3.673zM253.003 170.142v23.376h-22.316v3.672h26.04v-3.672h-.051v-23.376h-3.673zM230.678 210.343h23.376v23.243h3.673V206.62h-3.673v.051h-23.376v3.672z"></path><circle cx="274.269" cy="202.588" r="8.34" style="fill:#801421"></circle><path d="M112.945 393.754v-48.455s48.455-.472 48.455 48.455h-48.455Z" style="fill:#27aae1"></path><path style="fill:none;stroke:#801421;stroke-miterlimit:10;stroke-width:3px" d="M112.945 29.584v364.17M112.945 345.299s48.455-2.14 48.455 48.455"></path></g></svg>