<svg xmlns="http://www.w3.org/2000/svg" viewBox="0 0 800 400">
      <g fill-rule="nonzero" fill="none">
        <path d="M605.994 399.73H193.07c-32.607-.038-59.031-26.462-59.069-59.07V59.053C134.044 26.45 160.467.035 193.069 0h412.925c32.612.025 59.046 26.451 59.08 59.063v281.61c-.04 32.608-26.471 59.028-59.08 59.057z" fill="#253E56"></path>
        <path d="M193.069 5.747c-29.434.032-53.287 23.883-53.322 53.316v281.61c.032 29.435 23.886 53.29 53.322 53.321h412.925c29.445-.025 53.308-23.888 53.334-53.333V59.05c-.035-29.43-23.885-53.28-53.317-53.315l-412.942.011z" fill="#FFF"></path>
        <g opacity=".4" transform="translate(188.172 5.747)">
          <path fill="#80091F" d="M207.983 243.235h6.207v145h-6.207zM207.983 0h6.207v145h-6.207z"></path>
          <circle fill="#80091F" cx="102.27" cy="86.08" r="4.77"></circle>
          <circle fill="#80091F" cx="101.494" cy="308.379" r="4.77"></circle>
          <path d="M1.287 222.218h1.207c15.172 0 27.472-12.299 27.472-27.47 0-15.173-12.3-27.472-27.472-27.472H1.287" fill="#A4DFF4"></path>
          <path d="M2.494 165.833c16 0 28.972 12.971 28.972 28.972 0 15.84-12.713 28.711-28.493 28.967l-.479.004H1.287v-3h1.207c14.344 0 25.972-11.628 25.972-25.971 0-14.2-11.397-25.739-25.542-25.968l-.43-.004H1.287v-3h1.207z" fill="#80091F"></path>
          <path fill="#80091F" d="M2.787 0v388.115h-3V0z"></path>
          <path d="M423.454 166.77h-1.207c-15.172 0-27.471 12.3-27.471 27.471 0 15.172 12.3 27.472 27.471 27.472h1.207" fill="#A4DFF4"></path>
          <path d="M423.454 165.213v3h-1.207c-14.343 0-25.971 11.627-25.971 25.97 0 14.201 11.396 25.74 25.542 25.969l.43.003h1.206v3h-1.207c-16 0-28.971-12.97-28.971-28.971 0-15.84 12.713-28.712 28.492-28.967l.48-.004h1.206z" fill="#80091F"></path>
          <path fill="#80091F" d="M424.948 0v388.236h-3V0z"></path>
          <circle fill="#80091F" cx="323.69" cy="86.276" r="4.77"></circle>
          <circle fill="#80091F" cx="322.914" cy="308.569" r="4.77"></circle>
        </g>
      </g>
    </svg>