<svg xmlns="http://www.w3.org/2000/svg" viewBox="0 0 778.917 579.659"><g data-name="Layer 2"><path d="M3 579.525V203C3 93 93 3 203 3h372.917c110 0 200 90 200 200v376.659" style="fill:#fff"></path><path d="M3 579.525V203C3 93 93 3 203 3h372.917c110 0 200 90 200 200v376.659" style="fill:none;stroke:#253e56;stroke-miterlimit:10;stroke-width:6px"></path></g><g data-name="Layer 1" style="opacity:.4"><path d="M3 180.333h1.61c-.613 1.586 1.492 4.078-1.61 4.834v-4.834Z" style="fill:#c5c4c4"></path><path d="M772.364 560.591H6.494v-9.668h765.87v9.668Z" style="fill:#253e56"></path><path d="M67.334 291.859c.686.537 1.359 1.517 2.061 1.539 4.525.141 9.058.003 13.583.144.702.022 1.375 1.002 2.061 1.539-5.867 0-11.734.032-17.6-.051-.577-.008-1.144-.722-1.715-1.108l1.61-2.064ZM316.82 295.082c.662-.537 1.309-1.516 1.989-1.539 4.162-.144 8.331-.072 12.497-.072-.662.537-1.309 1.515-1.989 1.539-4.162.144-8.331.072-12.497.072ZM447.71 293.471c5.234 0 10.47-.058 15.701.071.68.017 1.337 1.003 2.004 1.54-5.234 0-10.47.058-15.701-.071-.68-.017-1.337-1.003-2.004-1.54Z" style="fill:#f16462"></path><path d="M463.806 245.133v1.611a3624.5 3624.5 0 0 1-15.812-.545c-.007 0-.007-.521 0-.521 5.27-.198 10.541-.371 15.812-.545Z" style="fill:#ed2224"></path><circle cx="581.584" cy="271.373" r="118.432" style="fill:none;stroke:#801421;stroke-miterlimit:10;stroke-width:4px"></circle><path transform="rotate(90 709.988 293.259)" style="fill:#801421" d="M708.151 280.91h3.673v24.697h-3.673z"></path><path transform="rotate(90 709.988 246.744)" style="fill:#801421" d="M708.151 234.396h3.673v24.697h-3.673z"></path><path transform="rotate(90 451.458 293.259)" style="fill:#801421" d="M449.621 280.91h3.673v24.697h-3.673z"></path><path transform="rotate(90 451.458 246.744)" style="fill:#801421" d="M449.621 234.396h3.673v24.697h-3.673z"></path><path style="fill:#801421" d="M587.828 313.85v-23.375h24.134v-3.673h-27.857v3.673h.051v23.375h3.672zM547.803 290.249h23.375v23.544h3.673v-27.268h-3.673v.051h-23.375v3.673zM611.962 251.97h-24.184v-23.242h-3.673v26.944h3.673v-.051h24.184v-3.651zM570.952 228.783v23.375h-23.206v3.673h26.929v-3.673h-.051v-23.375h-3.672z"></path><circle cx="578.707" cy="272.373" r="8.34" style="fill:#801421"></circle><g><path d="M64.286 293.471c5.234 0 10.47-.058 15.701.071.68.017 1.337 1.003 2.004 1.54-5.234 0-10.47.058-15.701-.071-.68-.017-1.337-1.003-2.004-1.54Z" style="fill:#f16462"></path><path d="M80.382 245.133v1.611a3624.5 3624.5 0 0 1-15.812-.545c-.007 0-.007-.521 0-.521 5.27-.198 10.541-.371 15.812-.545Z" style="fill:#ed2224"></path><circle cx="198.16" cy="271.373" r="118.432" style="fill:none;stroke:#801421;stroke-miterlimit:10;stroke-width:4px"></circle><path transform="rotate(90 326.563 293.259)" style="fill:#801421" d="M324.727 280.91h3.673v24.697h-3.673z"></path><path transform="rotate(90 326.563 246.745)" style="fill:#801421" d="M324.727 234.396h3.673v24.697h-3.673z"></path><path transform="rotate(90 68.033 293.259)" style="fill:#801421" d="M66.197 280.91h3.673v24.697h-3.673z"></path><path transform="rotate(90 68.033 246.745)" style="fill:#801421" d="M66.197 234.396h3.673v24.697h-3.673z"></path><path style="fill:#801421" d="M204.404 313.85v-23.375h23.609v-3.673h-27.332v3.673h.051v23.375h3.672zM164.657 290.413h23.375v23.38h3.673V286.69h-3.673v.051h-23.375v3.672zM227.914 252.22h-23.375v-23.492h-3.673v27.215h3.673v-.051h23.375v-3.672zM187.528 228.783v23.375H164.63v3.673h26.621v-3.673h-.051v-23.375h-3.672z"></path><circle cx="195.283" cy="272.373" r="8.34" style="fill:#801421"></circle></g><path d="M381.57 566.653v.997h-.332v-.997h.332Z" style="fill:#fdfdfd"></path><path d="M342.458 103.658v2.1c0 26.4 21.4 47.8 47.8 47.8s47.8-21.4 47.8-47.8v-2.1" style="fill:#a5def2"></path><path d="M437.958 103.658v2.1c0 26.4-21.4 47.8-47.8 47.8s-47.8-21.4-47.8-47.8v-2.1M29.358 103.658h720.2" style="fill:none;stroke:#801421;stroke-miterlimit:10;stroke-width:3px"></path></g></svg>