<svg width="2em" height="2em" viewBox="0 0 16 16" fill="rgb(36, 123, 160)" xmlns="http://www.w3.org/2000/svg">
        <circle cx="8" cy="8" r="8"></circle>
        <path data-paper-data="{&quot;skipFill&quot;:true}" fill="white" d="M5.12109375,10.7695312 L5.12109375,8.50390625 L7.33203125,8.50390625 L7.33203125,7.44921875 L5.12109375,7.44921875 L5.12109375,6.140625 L7.5546875,6.140625 L7.5546875,5.08203125 L3.75,5.08203125 L3.75,10.7695312 L5.12109375,10.7695312 Z M12.0117188,10.7695312 L12.0117188,9.75390625 L9.7734375,9.75390625 L10.5078125,8.90625 C10.8984375,8.515625 11.1816406,8.20377604 11.3574219,7.97070312 C11.5332031,7.73763021 11.6627604,7.51497396 11.7460938,7.30273438 C11.8294271,7.09049479 11.8710938,6.87239583 11.8710938,6.6484375 C11.8710938,6.1171875 11.7050781,5.70963542 11.3730469,5.42578125 C11.0410156,5.14192708 10.5677083,5 9.953125,5 C9.5703125,5 9.22395833,5.08333333 8.9140625,5.25 C8.60416667,5.41666667 8.36197917,5.64778646 8.1875,5.94335938 C8.01302083,6.23893229 7.92578125,6.56119792 7.92578125,6.91015625 L7.92578125,6.91015625 L9.24609375,6.91015625 C9.24609375,6.65494792 9.30859375,6.44205729 9.43359375,6.27148438 C9.55859375,6.10091146 9.72135417,6.015625 9.921875,6.015625 C10.125,6.015625 10.2799479,6.07942708 10.3867188,6.20703125 C10.4934896,6.33463542 10.546875,6.52083333 10.546875,6.765625 C10.546875,7.06770833 10.3216146,7.47526042 9.87109375,7.98828125 L9.87109375,7.98828125 L8.04296875,9.91015625 L8.04296875,10.7695312 L12.0117188,10.7695312 Z"></path>
      </svg>