<svg width="1em" height="1em" viewBox="0 0 16 16" fill="rgb(36, 123, 160)" xmlns="http://www.w3.org/2000/svg">
        <circle cx="8" cy="8" r="8"></circle>
        <path data-paper-data="{&quot;skipFill&quot;:true}" fill="white" d="M5.12109375,10.7695312 L5.12109375,8.50390625 L7.33203125,8.50390625 L7.33203125,7.44921875 L5.12109375,7.44921875 L5.12109375,6.140625 L7.5546875,6.140625 L7.5546875,5.08203125 L3.75,5.08203125 L3.75,10.7695312 L5.12109375,10.7695312 Z M9.88671875,10.8476562 C10.5221354,10.8476562 11.0351562,10.6953125 11.4257812,10.390625 C11.8164062,10.0859375 12.0117188,9.6796875 12.0117188,9.171875 C12.0117188,8.84375 11.9257812,8.56835938 11.7539062,8.34570312 C11.5820312,8.12304688 11.3450521,7.95703125 11.0429688,7.84765625 C11.3294271,7.71223958 11.547526,7.53580729 11.6972656,7.31835938 C11.8470052,7.10091146 11.921875,6.86979167 11.921875,6.625 C11.921875,6.11979167 11.7408854,5.72265625 11.3789062,5.43359375 C11.0169271,5.14453125 10.5195312,5 9.88671875,5 C9.53255208,5 9.20768229,5.06575521 8.91210938,5.19726562 C8.61653646,5.32877604 8.38541667,5.51171875 8.21875,5.74609375 C8.05208333,5.98046875 7.96875,6.24739583 7.96875,6.546875 L7.96875,6.546875 L9.28515625,6.546875 C9.28515625,6.39583333 9.34960938,6.26953125 9.47851562,6.16796875 C9.60742188,6.06640625 9.75911458,6.015625 9.93359375,6.015625 C10.1471354,6.015625 10.3125,6.07486979 10.4296875,6.19335938 C10.546875,6.31184896 10.6054688,6.46484375 10.6054688,6.65234375 C10.6054688,7.13411458 10.359375,7.375 9.8671875,7.375 L9.8671875,7.375 L9.24609375,7.375 L9.24609375,8.35546875 L9.88671875,8.35546875 C10.1393229,8.35546875 10.3372396,8.41536458 10.4804688,8.53515625 C10.6236979,8.65494792 10.6953125,8.85807292 10.6953125,9.14453125 C10.6953125,9.34505208 10.6263021,9.50976562 10.4882812,9.63867188 C10.3502604,9.76757812 10.1653646,9.83203125 9.93359375,9.83203125 C9.72786458,9.83203125 9.5546875,9.76822917 9.4140625,9.640625 C9.2734375,9.51302083 9.203125,9.36197917 9.203125,9.1875 L9.203125,9.1875 L7.87890625,9.1875 C7.87890625,9.5078125 7.9609375,9.79361979 8.125,10.0449219 C8.2890625,10.296224 8.53059896,10.4928385 8.84960938,10.6347656 C9.16861979,10.7766927 9.51432292,10.8476562 9.88671875,10.8476562 Z"></path>
      </svg>