<svg width="2em" height="2em" viewBox="0 0 16 16" fill="rgb(36, 123, 160)" xmlns="http://www.w3.org/2000/svg">
        <circle cx="8" cy="8" r="8"></circle>
        <path data-paper-data="{&quot;skipFill&quot;:true}" fill="white" d="M5.12109375,10.9375 L5.12109375,8.671875 L7.33203125,8.671875 L7.33203125,7.6171875 L5.12109375,7.6171875 L5.12109375,6.30859375 L7.5546875,6.30859375 L7.5546875,5.25 L3.75,5.25 L3.75,10.9375 L5.12109375,10.9375 Z M11.5195312,10.9375 L11.5195312,9.73046875 L12.0976562,9.73046875 L12.0976562,8.71484375 L11.5195312,8.71484375 L11.5195312,5.25 L10.203125,5.25 L10.203125,5.26171875 L7.92578125,8.92578125 L8.00390625,9.73046875 L10.203125,9.73046875 L10.203125,10.9375 L11.5195312,10.9375 Z M10.203125,8.71484375 L9.1796875,8.71484375 L10.1210938,7.09765625 L10.203125,6.96484375 L10.203125,8.71484375 Z"></path>
      </svg>