<svg width="1em" height="1em" viewBox="0 0 16 16" fill="rgb(36, 123, 160)" xmlns="http://www.w3.org/2000/svg">
        <circle cx="8" cy="8" r="8"></circle>
        <path data-paper-data="{&quot;skipFill&quot;:true}" fill="white" d="M5.37109375,10.6875 L5.37109375,8.421875 L7.58203125,8.421875 L7.58203125,7.3671875 L5.37109375,7.3671875 L5.37109375,6.05859375 L7.8046875,6.05859375 L7.8046875,5 L4,5 L4,10.6875 L5.37109375,10.6875 Z M10.2617188,10.765625 C10.6627604,10.765625 11.0104167,10.6861979 11.3046875,10.5273438 C11.5989583,10.3684896 11.827474,10.141276 11.9902344,9.84570312 C12.1529948,9.55013021 12.234375,9.22005208 12.234375,8.85546875 C12.234375,8.25130208 12.0826823,7.78190104 11.7792969,7.44726562 C11.4759115,7.11263021 11.0416667,6.9453125 10.4765625,6.9453125 C10.3307292,6.9453125 10.1816406,6.96614583 10.0292969,7.0078125 C9.87695312,7.04947917 9.75390625,7.09765625 9.66015625,7.15234375 L9.66015625,7.15234375 L9.7890625,6.0234375 L12.0429688,6.0234375 L12.0429688,5 L8.71875,5 L8.37109375,7.90625 L9.41796875,8.15234375 C9.56901042,7.95442708 9.79817708,7.85546875 10.1054688,7.85546875 C10.6471354,7.85546875 10.9179688,8.15885417 10.9179688,8.765625 C10.9179688,9.421875 10.6966146,9.75 10.2539062,9.75 C10.0585938,9.75 9.90104167,9.68880208 9.78125,9.56640625 C9.66145833,9.44401042 9.59505208,9.27864583 9.58203125,9.0703125 L9.58203125,9.0703125 L8.26171875,9.0703125 C8.25911458,9.39322917 8.34635417,9.68294271 8.5234375,9.93945312 C8.70052083,10.1959635 8.9453125,10.3977865 9.2578125,10.5449219 C9.5703125,10.6920573 9.90494792,10.765625 10.2617188,10.765625 Z"></path>
      </svg>