<svg width="2em" height="2em" viewBox="0 0 16 16" fill="rgb(208, 0, 0)" xmlns="http://www.w3.org/2000/svg">
        <path data-paper-data="{&quot;skipFill&quot;:true}" fill="white" d="M0.677930381,12.0240406 L15.3711888,12.0240406 C15.3711888,12.0240406 17.2170315,3.73640015 12.8017506,3.73640015 L3.35613263,3.73640015 C3.35613263,3.73640015 -1.1676876,3.53752375 0.677930381,12.0240406 Z"></path>
        <path d="M15.5608517,12.2599957 L0.487818021,12.2599957 L0.447368583,12.074153 C0.0287168975,10.1487597 -0.09690108,8.50651251 0.0738854368,7.19280464 C0.214334875,6.11123161 0.55568319,5.24246757 1.08826746,4.61055745 C2.03635735,3.48583835 3.25141353,3.49707431 3.36040229,3.50044509 L12.8017506,3.50044509 C13.7213012,3.50044509 14.4577057,3.83752375 14.9905147,4.50201813 C15.7439978,5.44156869 16.0743349,7.00741139 15.9723124,9.15595071 C15.9245103,10.1371936 15.8005418,11.1132394 15.6015259,12.0752766 L15.5608517,12.2599957 Z"></path>
        <path data-paper-data="{&quot;skipFill&quot;:true}" fill="white" d="M0.869391055,11.7880855 L15.1788293,11.7880855 C15.360627,10.8523552 16.0810764,6.61572599 14.6224248,4.79684959 C14.1774809,4.24201813 13.5819753,3.97235521 12.8022,3.97235521 L3.34579555,3.97235521 C3.30264948,3.97078217 2.26040229,3.94471476 1.44175061,4.92381588 C0.969840493,5.48673723 0.667818021,6.27415296 0.540402291,7.26426532 C0.383997796,8.48022037 0.494559594,10.001344 0.868941617,11.7880855 L0.869391055,11.7880855 Z"></path>
        <path d="M7.75 3.93 8.25 3.93 8.25 11.75 7.75 11.75z"></path>
        <path d="M14.2520877,8.0098833 C13.3460203,7.19640015 12.3152338,7.25257993 12.1756832,7.26426532 L3.75411016,7.26426532 C2.91995285,7.26426532 2.22422252,7.54808554 1.68669443,8.10763611 C0.390964089,9.45595071 0.47321128,11.9278608 0.478379819,12.0334788 L0.487593302,12.2595462 L15.6071439,12.2968496 L15.6071439,12.0602204 C15.6071439,10.1799957 15.1511888,8.81729903 14.2520877,8.0098833 Z"></path>
        <path data-paper-data="{&quot;skipFill&quot;:true}" fill="white" d="M3.92792359,7.73617543 L12.0306414,7.73617543 L12.0562816,7.73475309 C12.217238,7.72734694 13.103977,7.71558442 13.8703931,8.36853498 C14.6713328,9.05078217 15.0955421,10.2128046 15.1327618,11.8249395 L7.80691914,11.8067372 L7.80689667,11.8046137 L0.949840493,11.7887597 L0.950758681,11.7501376 C0.968222848,11.0976518 1.11143831,9.39608554 2.09534885,8.43370352 C2.56739376,7.97078217 3.18429774,7.73617543 3.92792359,7.73617543 Z"></path>
      </svg>