<svg width="1em" height="1em" viewBox="0 0 16 16" fill="rgb(208, 0, 0)" xmlns="http://www.w3.org/2000/svg">
        <path data-paper-data="{&quot;skipFill&quot;:true}" fill="white" d="M2.60243625,11.4790104 L13.6223801,11.4790104 C13.6223801,11.4790104 15.0067621,5.26328005 11.6953014,5.26328005 L4.61108794,5.26328005 C4.61108794,5.26328005 1.21822277,5.11412275 2.60243625,11.4790104 Z" transform="rotate(90 8.09 8.371)"></path>
        <path d="M13.7642468,11.656392 L2.45947152,11.656392 L2.42913444,11.51701 C2.11514568,10.072965 2.0209322,8.84127963 2.14902208,7.85599874 C2.25435916,7.04481896 2.5103704,6.39324593 2.9098086,5.91931334 C3.62087602,5.07577402 4.53216815,5.08420098 4.61390972,5.08672907 L11.694921,5.08672907 C12.3845839,5.08672907 12.9368873,5.33953806 13.336494,5.83790885 C13.9016064,6.54257177 14.1493592,7.71695379 14.0728423,9.32835829 C14.0369907,10.0642905 13.9440143,10.7963248 13.7947524,11.5178527 L13.7642468,11.656392 Z" transform="rotate(90 8.09 8.371)"></path>
        <path data-paper-data="{&quot;skipFill&quot;:true}" fill="white" d="M2.74616951,11.3018603 L13.4782482,11.3018603 C13.6145965,10.6000626 14.1549336,7.42259066 13.0609448,6.05843336 C12.7272369,5.64230976 12.2806077,5.44006257 11.6957762,5.44006257 L4.60347288,5.44006257 C4.57111333,5.43888279 3.78942794,5.41933223 3.17543917,6.15365808 C2.82150659,6.57584909 2.59498973,7.16641088 2.49942794,7.90899515 C2.38212456,8.82096145 2.46504591,9.96180414 2.74583243,11.3018603 L2.74616951,11.3018603 Z" transform="rotate(90 8.09 8.37)"></path>
        <path transform="rotate(90 8.125 7.933)" d="M8 5 8.25 5 8.25 10.865 8 10.865z"></path>
        <path d="M11.3245974,7.08003987 C10.6450469,6.46992751 9.87195699,6.51206234 9.76729407,6.52082639 L3.45111429,6.52082639 C2.82549632,6.52082639 2.30369856,6.73369155 1.9005525,7.15335448 C0.928754744,8.16459043 0.990440137,10.018523 0.994316541,10.0977365 L1.00122665,10.2672871 L12.3408896,10.2952646 L12.3408896,10.1177927 C12.3408896,8.70762414 11.9989233,7.68560167 11.3245974,7.08003987 Z" transform="rotate(90 6.667 8.406)"></path>
        <path data-paper-data="{&quot;skipFill&quot;:true}" fill="white" d="M3.58072426,6.87386489 L9.65776265,6.87386489 L9.6769928,6.87279814 C9.79771006,6.86724352 10.4627643,6.85842163 11.0375764,7.34813455 C11.6382811,7.85981995 11.9564382,8.7313368 11.9843529,9.94043793 L6.48997093,9.92678624 L6.48995407,9.9251936 L1.34716194,9.91330309 L1.34785058,9.88433652 C1.3609487,9.39497219 1.4683603,8.11879748 2.20629321,7.39701096 C2.56032689,7.04981995 3.02300487,6.87386489 3.58072426,6.87386489 Z" transform="rotate(90 6.666 8.406)"></path>
      </svg>