<svg width="1em" height="1em" viewBox="0 0 16 16" fill="rgb(208, 0, 0)" xmlns="http://www.w3.org/2000/svg">
        <path data-paper-data="{&quot;skipFill&quot;:true}" fill="white" d="M0.803248335,12.1386805 L15.4965068,12.1386805 C15.4965068,12.1386805 17.3423495,3.85104007 12.9270686,3.85104007 L3.48145058,3.85104007 C3.48145058,3.85104007 -1.04236964,3.65216367 0.803248335,12.1386805 Z" transform="rotate(90 8.12 7.995)"></path>
        <path d="M15.6856624,12.3751893 L0.612628695,12.3751893 L0.572179257,12.1893466 C0.153527572,10.2639534 0.0279095944,8.62170618 0.198696111,7.30799831 C0.339145549,6.22642528 0.680493864,5.35766124 1.21307813,4.72575112 C2.16116802,3.60103202 3.3762242,3.61226798 3.48521297,3.61563876 L12.9265613,3.61563876 C13.8461118,3.61563876 14.5825163,3.95271742 15.1153253,4.6172118 C15.8688085,5.55676236 16.1991455,7.12260506 16.0971231,9.27114438 C16.049321,10.2523873 15.9253524,11.2284331 15.7263366,12.1904702 L15.6856624,12.3751893 Z" transform="rotate(90 8.12 7.995)"></path>
        <path data-paper-data="{&quot;skipFill&quot;:true}" fill="white" d="M0.994892678,11.9024804 L15.3043309,11.9024804 C15.4861286,10.9667501 16.2065781,6.73012088 14.7479264,4.91124448 C14.3029826,4.35641301 13.7074769,4.08675009 12.9277017,4.08675009 L3.47129717,4.08675009 C3.4281511,4.08517706 2.38590391,4.05910964 1.56725223,5.03821077 C1.09534212,5.60113212 0.793319644,6.38854785 0.665903913,7.37866021 C0.509499419,8.59461526 0.620061217,10.1157389 0.994443239,11.9024804 L0.994892678,11.9024804 Z" transform="rotate(90 8.12 7.994)"></path>
        <path transform="rotate(90 8.118 8.011)" d="M7.904 4.101L8.331 4.101 8.331 11.921 7.904 11.921z"></path>
        <path d="M12.4327966,6.27338649 C11.5267292,5.45990335 10.4959427,5.51608312 10.3563921,5.52776851 L1.93481906,5.52776851 C1.10066176,5.52776851 0.404931418,5.81158874 -0.132596672,6.3711393 C-1.42832701,7.71945391 -1.34607982,10.191364 -1.34091128,10.296982 L-1.3316978,10.5230494 L13.7878528,10.5603528 L13.7878528,10.3237236 C13.7878528,8.44349885 13.3318977,7.08080222 12.4327966,6.27338649 Z" transform="rotate(90 6.222 8.041)"></path>
        <path data-paper-data="{&quot;skipFill&quot;:true}" fill="white" d="M2.10763234,5.99848652 L10.2103502,5.99848652 L10.2359904,5.99706418 C10.3969468,5.98965803 11.2836858,5.97789551 12.0501018,6.63084607 C12.8510415,7.31309326 13.2752509,8.47511574 13.3124706,10.0872506 L5.9866279,10.0690483 L5.98660543,10.0669248 L-0.87045075,10.0510708 L-0.869532562,10.0124487 C-0.852068396,9.35996293 -0.708852931,7.65839663 0.275057612,6.69601461 C0.747102516,6.23309326 1.3640065,5.99848652 2.10763234,5.99848652 Z" transform="rotate(90 6.221 8.041)"></path>
      </svg>