<svg width="1em" height="1em" viewBox="0 0 16 16" fill="rgb(208, 0, 0)" xmlns="http://www.w3.org/2000/svg">
        <path data-paper-data="{&quot;skipFill&quot;:true}" fill="white" d="M0.688608411,12.2639985 L15.3818668,12.2639985 C15.3818668,12.2639985 17.2277095,3.97635803 12.8124286,3.97635803 L3.36681066,3.97635803 C3.36681066,3.97635803 -1.15700957,3.77748162 0.688608411,12.2639985 Z" transform="rotate(180 8.005 8.12)"></path>
        <path d="M15.5704687,12.5 L0.497435025,12.5 L0.456985587,12.3141573 C0.0383339019,10.388764 -0.0872840757,8.74651685 0.0835024412,7.43280899 C0.223951879,6.35123596 0.565300194,5.48247191 1.09788446,4.8505618 C2.04597435,3.7258427 3.26103053,3.73707865 3.3700193,3.74044944 L12.8113676,3.74044944 C13.7309182,3.74044944 14.4673227,4.07752809 15.0001317,4.74202247 C15.7536148,5.68157303 16.0839519,7.24741573 15.9819294,9.39595506 C15.9341273,10.377198 15.8101588,11.3532438 15.6111429,12.3152809 L15.5704687,12.5 Z" transform="rotate(180 8.005 8.12)"></path>
        <path data-paper-data="{&quot;skipFill&quot;:true}" fill="white" d="M0.88049779,12.0279821 L15.189936,12.0279821 C15.3717337,11.0922517 16.0921832,6.8556225 14.6335315,5.0367461 C14.1885877,4.48191464 13.5930821,4.21225172 12.8133068,4.21225172 L3.35690228,4.21225172 C3.31375622,4.21067868 2.27150903,4.18461127 1.45285734,5.16371239 C0.980947228,5.72663374 0.678924756,6.51404947 0.551509026,7.50416183 C0.395104532,8.72011688 0.505666329,10.2412405 0.880048352,12.0279821 L0.88049779,12.0279821 Z" transform="rotate(180 8.006 8.12)"></path>
        <path transform="rotate(180 8 8.16)" d="M7.75 4.25 8.25 4.25 8.25 12.07 7.75 12.07z"></path>
        <path d="M14.1692934,4.45409539 C13.263226,3.64061225 12.2324395,3.69679202 12.0928889,3.70847742 L3.67131586,3.70847742 C2.83715856,3.70847742 2.14142822,3.99229764 1.60390013,4.5518482 C0.308169796,5.90016281 0.390416987,8.37207292 0.395585526,8.4776909 L0.404799009,8.70375832 L15.5243496,8.74106169 L15.5243496,8.50443247 C15.5243496,6.62420775 15.0683945,5.26151112 14.1692934,4.45409539 Z" transform="rotate(180 7.959 6.222)"></path>
        <path data-paper-data="{&quot;skipFill&quot;:true}" fill="white" d="M3.84532125,4.17819528 L11.9480391,4.17819528 L11.9736793,4.17677294 C12.1346357,4.16936678 13.0213747,4.15760427 13.7877907,4.81055483 C14.5887304,5.49280202 15.0129398,6.65482449 15.0501595,8.26695932 L7.72431681,8.24875708 L7.72429434,8.24663356 L0.867238159,8.23077955 L0.868156347,8.19215745 C0.885620513,7.53967168 1.02883598,5.83810539 2.01274652,4.87572337 C2.48479142,4.41280202 3.10169541,4.17819528 3.84532125,4.17819528 Z" transform="rotate(180 7.959 6.221)"></path>
      </svg>