<svg width="2em" height="2em" viewBox="0 0 16 16" fill="rgb(208, 0, 0)" xmlns="http://www.w3.org/2000/svg">
        <path data-paper-data="{&quot;skipFill&quot;:true}" fill="white" d="M0.563290457,12.1493586 L15.2565489,12.1493586 C15.2565489,12.1493586 17.1023916,3.8617181 12.6871107,3.8617181 L3.2414927,3.8617181 C3.2414927,3.8617181 -1.28232752,3.6628417 0.563290457,12.1493586 Z" transform="rotate(-90 7.88 8.005)"></path>
        <path d="M15.4456581,12.3848063 L0.372624351,12.3848063 L0.332174913,12.1989636 C-0.0864767725,10.2735704 -0.21209475,8.63132318 -0.0413082332,7.31761532 C0.099141205,6.23604229 0.44048952,5.36727824 0.973073789,4.73536813 C1.92116368,3.61064903 3.13621986,3.62188498 3.24520862,3.62525577 L12.6865569,3.62525577 C13.6061075,3.62525577 14.342512,3.96233442 14.875321,4.6268288 C15.6288041,5.56637936 15.9591412,7.13222206 15.8571187,9.28076139 C15.8093167,10.2620043 15.6853481,11.2380501 15.4863322,12.2000872 L15.4456581,12.3848063 Z" transform="rotate(-90 7.88 8.005)"></path>
        <path data-paper-data="{&quot;skipFill&quot;:true}" fill="white" d="M0.754996167,11.9135872 L15.0644344,11.9135872 C15.2462321,10.9778568 15.9666816,6.74122762 14.5080299,4.92235121 C14.0630861,4.36751975 13.4675804,4.09785683 12.6878052,4.09785683 L3.23140066,4.09785683 C3.18825459,4.0962838 2.1460074,4.07021638 1.32735572,5.0493175 C0.855445606,5.61223885 0.553423134,6.39965458 0.426007403,7.38976694 C0.269602909,8.605722 0.380164707,10.1268456 0.754546729,11.9135872 L0.754996167,11.9135872 Z" transform="rotate(-90 7.88 8.006)"></path>
        <path transform="rotate(-90 7.882 7.989)" d="M7.669 4.079L8.096 4.079 8.096 11.899 7.669 11.899z"></path>
        <path d="M15.9885845,6.1905922 C15.0825171,5.37710905 14.0517306,5.43328883 13.91218,5.44497422 L5.49060696,5.44497422 C4.65644966,5.44497422 3.96071932,5.72879445 3.42319123,6.28834501 C2.12746089,7.63665961 2.20970808,10.1085697 2.21487662,10.2141877 L2.22409011,10.4402551 L17.3436407,10.4775585 L17.3436407,10.2409293 C17.3436407,8.36070456 16.8876856,6.99800793 15.9885845,6.1905922 Z" transform="rotate(-90 9.778 7.959)"></path>
        <path data-paper-data="{&quot;skipFill&quot;:true}" fill="white" d="M5.66561249,5.91588419 L13.7683304,5.91588419 L13.7939705,5.91446185 C13.9549269,5.90705569 14.8416659,5.89529318 15.608082,6.54824374 C16.4090217,7.23049093 16.833231,8.3925134 16.8704508,10.0046482 L9.54460805,9.98644599 L9.54458558,9.98432247 L2.6875294,9.96846846 L2.68844759,9.92984635 C2.70591176,9.27736059 2.84912722,7.5757943 3.83303776,6.61341228 C4.30508267,6.15049093 4.92198665,5.91588419 5.66561249,5.91588419 Z" transform="rotate(-90 9.779 7.959)"></path>
      </svg>