<svg width="1em" height="1em" viewBox="0 0 16 16" fill="currentColor" xmlns="http://www.w3.org/2000/svg">
        <circle cx="8" cy="8" r="8"></circle>
        <path data-paper-data="{&quot;skipFill&quot;:true}" fill="white" d="M7.91015625,10.8476562 C8.36328125,10.8476562 8.76627604,10.7643229 9.11914062,10.5976562 C9.47200521,10.4309896 9.74609375,10.1959635 9.94140625,9.89257812 C10.1367188,9.58919271 10.2434896,9.23958333 10.2617188,8.84375 L10.2617188,8.84375 L8.8984375,8.84375 C8.88802083,9.16666667 8.79947917,9.40234375 8.6328125,9.55078125 C8.46614583,9.69921875 8.22526042,9.7734375 7.91015625,9.7734375 C7.53776042,9.7734375 7.27539062,9.64322917 7.12304688,9.3828125 C6.97070312,9.12239583 6.89453125,8.68880208 6.89453125,8.08203125 L6.89453125,8.08203125 L6.89453125,7.6796875 C6.90234375,7.11979167 6.98567708,6.71223958 7.14453125,6.45703125 C7.30338542,6.20182292 7.55338542,6.07421875 7.89453125,6.07421875 C8.23046875,6.07421875 8.48046875,6.14973958 8.64453125,6.30078125 C8.80859375,6.45182292 8.89583333,6.70052083 8.90625,7.046875 L8.90625,7.046875 L10.2734375,7.046875 C10.2161458,6.40885417 9.97786458,5.90820312 9.55859375,5.54492188 C9.13932292,5.18164062 8.58463542,5 7.89453125,5 C7.41536458,5 6.99348958,5.11393229 6.62890625,5.34179688 C6.26432292,5.56966146 5.98502604,5.89257812 5.79101562,6.31054688 C5.59700521,6.72851562 5.5,7.21614583 5.5,7.7734375 L5.5,7.7734375 L5.5,8.0546875 C5.5,8.94270833 5.71484375,9.63020833 6.14453125,10.1171875 C6.57421875,10.6041667 7.16276042,10.8476562 7.91015625,10.8476562 Z"></path>
      </svg>