<svg width="2em" height="2em" viewBox="0 0 16 16" fill="currentColor" xmlns="http://www.w3.org/2000/svg">
        <circle cx="8" cy="8" r="8"></circle>
        <path data-paper-data="{&quot;skipFill&quot;:true}" fill="white" d="M5.66015625,10.8476562 C6.11328125,10.8476562 6.51627604,10.7643229 6.86914062,10.5976562 C7.22200521,10.4309896 7.49609375,10.1959635 7.69140625,9.89257812 C7.88671875,9.58919271 7.99348958,9.23958333 8.01171875,8.84375 L8.01171875,8.84375 L6.6484375,8.84375 C6.63802083,9.16666667 6.54947917,9.40234375 6.3828125,9.55078125 C6.21614583,9.69921875 5.97526042,9.7734375 5.66015625,9.7734375 C5.28776042,9.7734375 5.02539062,9.64322917 4.87304688,9.3828125 C4.72070312,9.12239583 4.64453125,8.68880208 4.64453125,8.08203125 L4.64453125,8.08203125 L4.64453125,7.6796875 C4.65234375,7.11979167 4.73567708,6.71223958 4.89453125,6.45703125 C5.05338542,6.20182292 5.30338542,6.07421875 5.64453125,6.07421875 C5.98046875,6.07421875 6.23046875,6.14973958 6.39453125,6.30078125 C6.55859375,6.45182292 6.64583333,6.70052083 6.65625,7.046875 L6.65625,7.046875 L8.0234375,7.046875 C7.96614583,6.40885417 7.72786458,5.90820312 7.30859375,5.54492188 C6.88932292,5.18164062 6.33463542,5 5.64453125,5 C5.16536458,5 4.74348958,5.11393229 4.37890625,5.34179688 C4.01432292,5.56966146 3.73502604,5.89257812 3.54101562,6.31054688 C3.34700521,6.72851562 3.25,7.21614583 3.25,7.7734375 L3.25,7.7734375 L3.25,8.0546875 C3.25,8.94270833 3.46484375,9.63020833 3.89453125,10.1171875 C4.32421875,10.6041667 4.91276042,10.8476562 5.66015625,10.8476562 Z M10.4765625,10.8476562 C11.1015625,10.8476562 11.5970052,10.6542969 11.9628906,10.2675781 C12.328776,9.88085938 12.5117188,9.35807292 12.5117188,8.69921875 L12.5117188,8.69921875 L12.5117188,8.65234375 C12.5117188,7.97786458 12.3294271,7.44466146 11.9648438,7.05273438 C11.6002604,6.66080729 11.1015625,6.46484375 10.46875,6.46484375 C10.0546875,6.46484375 9.69401042,6.55338542 9.38671875,6.73046875 C9.07942708,6.90755208 8.84375,7.16080729 8.6796875,7.49023438 C8.515625,7.81966146 8.43359375,8.1953125 8.43359375,8.6171875 L8.43359375,8.6171875 L8.4375,8.83984375 C8.46614583,9.45703125 8.66276042,9.94596354 9.02734375,10.3066406 C9.39192708,10.6673177 9.875,10.8476562 10.4765625,10.8476562 Z M10.4765625,9.83203125 C10.2369792,9.83203125 10.0559896,9.74088542 9.93359375,9.55859375 C9.81119792,9.37630208 9.75,9.08984375 9.75,8.69921875 L9.75,8.69921875 L9.75390625,8.4609375 C9.79036458,7.80729167 10.0286458,7.48046875 10.46875,7.48046875 C10.953125,7.48046875 11.1953125,7.859375 11.1953125,8.6171875 L11.1953125,8.6171875 L11.1953125,8.75 C11.1848958,9.47135417 10.9453125,9.83203125 10.4765625,9.83203125 Z"></path>
      </svg>