<svg width="1em" height="1em" viewBox="0 0 16 16" fill="currentColor" xmlns="http://www.w3.org/2000/svg">
        <circle cx="8" cy="8" r="8"></circle>
        <path data-paper-data="{&quot;skipFill&quot;:true}" fill="white" d="M8.00390625,10.8476562 C8.48828125,10.8476562 8.93359375,10.7760417 9.33984375,10.6328125 C9.74609375,10.4895833 10.0546875,10.3007812 10.265625,10.0664062 L10.265625,10.0664062 L10.265625,7.73046875 L7.94140625,7.73046875 L7.94140625,8.671875 L8.89453125,8.671875 L8.89453125,9.5546875 C8.72005208,9.71354167 8.45442708,9.79296875 8.09765625,9.79296875 C7.68098958,9.79296875 7.37565104,9.65039062 7.18164062,9.36523438 C6.98763021,9.08007812 6.890625,8.65364583 6.890625,8.0859375 L6.890625,8.0859375 L6.890625,7.7421875 C6.89322917,7.20052083 6.98828125,6.78385417 7.17578125,6.4921875 C7.36328125,6.20052083 7.62890625,6.0546875 7.97265625,6.0546875 C8.25911458,6.0546875 8.48046875,6.12239583 8.63671875,6.2578125 C8.79296875,6.39322917 8.89453125,6.61979167 8.94140625,6.9375 L8.94140625,6.9375 L10.2617188,6.9375 C10.1966146,6.29427083 9.96809896,5.81054688 9.57617188,5.48632812 C9.18424479,5.16210938 8.63411458,5 7.92578125,5 C7.44140625,5 7.01497396,5.11263021 6.64648438,5.33789062 C6.27799479,5.56315104 5.99479167,5.88476562 5.796875,6.30273438 C5.59895833,6.72070312 5.5,7.20963542 5.5,7.76953125 L5.5,7.76953125 L5.50390625,8.26171875 C5.53515625,9.07421875 5.7734375,9.70833333 6.21875,10.1640625 C6.6640625,10.6197917 7.25911458,10.8476562 8.00390625,10.8476562 Z"></path>
      </svg>