<svg width="2em" height="2em" viewBox="0 0 16 16" fill="currentColor" xmlns="http://www.w3.org/2000/svg">
        <circle cx="8" cy="8" r="8"></circle>
        <path data-paper-data="{&quot;skipFill&quot;:true}" fill="white" d="M7.2578125,10.9375 L7.2578125,9.8828125 L4.87109375,9.8828125 L4.87109375,5.25 L3.5,5.25 L3.5,10.9375 L7.2578125,10.9375 Z M9.70703125,10.9375 C10.1992188,10.9348958 10.6451823,10.8170573 11.0449219,10.5839844 C11.4446615,10.3509115 11.7545573,10.0279948 11.9746094,9.61523438 C12.1946615,9.20247396 12.3046875,8.73567708 12.3046875,8.21484375 L12.3046875,8.21484375 L12.3046875,7.953125 C12.3020833,7.4375 12.188151,6.97200521 11.9628906,6.55664062 C11.7376302,6.14127604 11.4244792,5.81966146 11.0234375,5.59179688 C10.6223958,5.36393229 10.1705729,5.25 9.66796875,5.25 L9.66796875,5.25 L7.8359375,5.25 L7.8359375,10.9375 L9.70703125,10.9375 Z M9.68359375,9.8828125 L9.20703125,9.8828125 L9.20703125,6.30859375 L9.66796875,6.30859375 C10.0716146,6.30859375 10.3789062,6.44791667 10.5898438,6.7265625 C10.8007812,7.00520833 10.90625,7.41927083 10.90625,7.96875 L10.90625,7.96875 L10.90625,8.21484375 C10.90625,8.76692708 10.8007812,9.18294271 10.5898438,9.46289062 C10.3789062,9.74283854 10.0768229,9.8828125 9.68359375,9.8828125 L9.68359375,9.8828125 Z"></path>
      </svg>