<svg width="1em" height="1em" viewBox="0 0 16 16" fill="currentColor" xmlns="http://www.w3.org/2000/svg">
        <circle cx="8" cy="8" r="8"></circle>
        <path data-paper-data="{&quot;skipFill&quot;:true}" fill="white" d="M4.62109375,10.9375 L4.62109375,8.9296875 L5.36328125,8.9296875 L6.3671875,10.9375 L7.8359375,10.9375 L7.8359375,10.8789062 L6.6484375,8.5859375 C6.98958333,8.42447917 7.24023438,8.21354167 7.40039062,7.953125 C7.56054688,7.69270833 7.640625,7.36458333 7.640625,6.96875 C7.640625,6.421875 7.45052083,5.99869792 7.0703125,5.69921875 C6.69010417,5.39973958 6.16276042,5.25 5.48828125,5.25 L5.48828125,5.25 L3.25,5.25 L3.25,10.9375 L4.62109375,10.9375 Z M5.48828125,7.87109375 L4.62109375,7.87109375 L4.62109375,6.30859375 L5.48828125,6.30859375 C5.74609375,6.30859375 5.94140625,6.37825521 6.07421875,6.51757812 C6.20703125,6.65690104 6.2734375,6.84895833 6.2734375,7.09375 C6.2734375,7.33854167 6.20768229,7.52929688 6.07617188,7.66601562 C5.94466146,7.80273438 5.74869792,7.87109375 5.48828125,7.87109375 L5.48828125,7.87109375 Z M10.3398438,10.9375 C10.8320312,10.9348958 11.2779948,10.8170573 11.6777344,10.5839844 C12.077474,10.3509115 12.3873698,10.0279948 12.6074219,9.61523438 C12.827474,9.20247396 12.9375,8.73567708 12.9375,8.21484375 L12.9375,8.21484375 L12.9375,7.953125 C12.9348958,7.4375 12.8209635,6.97200521 12.5957031,6.55664062 C12.3704427,6.14127604 12.0572917,5.81966146 11.65625,5.59179688 C11.2552083,5.36393229 10.8033854,5.25 10.3007812,5.25 L10.3007812,5.25 L8.46875,5.25 L8.46875,10.9375 L10.3398438,10.9375 Z M10.3164062,9.8828125 L9.83984375,9.8828125 L9.83984375,6.30859375 L10.3007812,6.30859375 C10.7044271,6.30859375 11.0117188,6.44791667 11.2226562,6.7265625 C11.4335938,7.00520833 11.5390625,7.41927083 11.5390625,7.96875 L11.5390625,7.96875 L11.5390625,8.21484375 C11.5390625,8.76692708 11.4335938,9.18294271 11.2226562,9.46289062 C11.0117188,9.74283854 10.7096354,9.8828125 10.3164062,9.8828125 L10.3164062,9.8828125 Z"></path>
      </svg>