<svg width="1em" height="1em" viewBox="0 0 16 16" fill="currentColor" xmlns="http://www.w3.org/2000/svg">
        <circle cx="8" cy="8" r="8"></circle>
        <path data-paper-data="{&quot;skipFill&quot;:true}" fill="white" d="M3.62109375,10.9375 L3.62109375,8.9296875 L4.36328125,8.9296875 L5.3671875,10.9375 L6.8359375,10.9375 L6.8359375,10.8789062 L5.6484375,8.5859375 C5.98958333,8.42447917 6.24023438,8.21354167 6.40039062,7.953125 C6.56054688,7.69270833 6.640625,7.36458333 6.640625,6.96875 C6.640625,6.421875 6.45052083,5.99869792 6.0703125,5.69921875 C5.69010417,5.39973958 5.16276042,5.25 4.48828125,5.25 L4.48828125,5.25 L2.25,5.25 L2.25,10.9375 L3.62109375,10.9375 Z M4.48828125,7.87109375 L3.62109375,7.87109375 L3.62109375,6.30859375 L4.48828125,6.30859375 C4.74609375,6.30859375 4.94140625,6.37825521 5.07421875,6.51757812 C5.20703125,6.65690104 5.2734375,6.84895833 5.2734375,7.09375 C5.2734375,7.33854167 5.20768229,7.52929688 5.07617188,7.66601562 C4.94466146,7.80273438 4.74869792,7.87109375 4.48828125,7.87109375 L4.48828125,7.87109375 Z M9.75,10.9375 L10.4960938,7.6953125 L11.2578125,10.9375 L12.6796875,10.9375 L13.8867188,5.25 L12.5273438,5.25 L11.875,8.81640625 L11.0820312,5.25 L9.91796875,5.25 L9.13671875,8.81640625 L8.484375,5.25 L7.12109375,5.25 L8.33203125,10.9375 L9.75,10.9375 Z"></path>
      </svg>